<svg width="330" height="336" viewBox="0 0 330 336" fill="none" xmlns="http://www.w3.org/2000/svg">
<path d="M179.544 39.8525H75.4632C63.9173 39.8525 54.5576 49.2123 54.5576 60.7581V304.978C54.5576 316.524 63.9173 325.884 75.4632 325.884H179.544C191.09 325.884 200.45 316.524 200.45 304.978V60.7581C200.45 49.2123 191.09 39.8525 179.544 39.8525Z" fill="#E3EEFA"/>
<path d="M179.544 39.8525H75.4632C63.9173 39.8525 54.5576 49.2123 54.5576 60.7581V304.978C54.5576 316.524 63.9173 325.884 75.4632 325.884H179.544C191.09 325.884 200.45 316.524 200.45 304.978V60.7581C200.45 49.2123 191.09 39.8525 179.544 39.8525Z" fill="#862785"/>
<path d="M160.077 40.5713H94.9551V48.1598C94.9551 51.5076 97.683 54.2355 101.031 54.2355H154.001C157.349 54.2355 160.077 51.5076 160.077 48.1598V40.5713Z" fill="#010101"/>
<path d="M115.39 46.251H140.362" stroke="white" stroke-width="0.76" stroke-linecap="round" stroke-linejoin="round"/>
<path d="M153.506 220.662H79.1334C75.9148 220.662 73.3057 223.271 73.3057 226.49V288.611C73.3057 291.83 75.9148 294.439 79.1334 294.439H153.506C156.724 294.439 159.333 291.83 159.333 288.611V226.49C159.333 223.271 156.724 220.662 153.506 220.662Z" fill="#91BAE5"/>
<path d="M104.751 231.003H87.6393C86.3656 231.003 85.333 232.035 85.333 233.309V250.421C85.333 251.694 86.3656 252.727 87.6393 252.727H104.751C106.024 252.727 107.057 251.694 107.057 250.421V233.309C107.057 232.035 106.024 231.003 104.751 231.003Z" fill="white"/>
<path d="M114.472 237.848H134.112" stroke="#010101" stroke-width="1.3" stroke-linecap="round" stroke-linejoin="round"/>
<path d="M114.472 244.841H146.14" stroke="#010101" stroke-width="1.3" stroke-linecap="round" stroke-linejoin="round"/>
<path d="M85.333 261.754H107.057" stroke="white" stroke-width="1.3" stroke-linecap="round" stroke-linejoin="round"/>
<path d="M85.333 268.97H146.14" stroke="white" stroke-width="1.3" stroke-linecap="round" stroke-linejoin="round"/>
<path d="M85.333 276.931H146.14" stroke="white" stroke-width="1.3" stroke-linecap="round" stroke-linejoin="round"/>
<path d="M41.0884 114.642C43.323 105.277 37.5423 95.8733 28.1769 93.6386C18.8114 91.404 9.40771 97.1847 7.17309 106.55C4.93847 115.916 10.7191 125.319 20.0846 127.554C29.4501 129.789 38.8538 124.008 41.0884 114.642Z" fill="#EE7716"/>
<path d="M17.1113 111.423L22.5671 115.49L31.9411 105.769" stroke="white" stroke-width="2.14" stroke-linecap="round" stroke-linejoin="round"/>
<path d="M92.1785 156.755H33.8513C31.7421 156.755 30.0322 158.465 30.0322 160.574V201.195C30.0322 203.304 31.7421 205.014 33.8513 205.014H92.1785C94.2877 205.014 95.9975 203.304 95.9975 201.195V160.574C95.9975 158.465 94.2877 156.755 92.1785 156.755Z" fill="#386EB5"/>
<path d="M73.1827 176.966C73.1827 171.213 68.5205 166.551 62.7671 166.551C57.0138 166.551 52.3516 171.213 52.3516 176.966C52.3516 178.901 52.8723 180.686 53.7899 182.224V182.273C54.2115 182.943 54.6827 183.563 55.2282 184.133L62.7919 194.127L70.3308 184.133C70.8764 183.563 71.3476 182.943 71.7444 182.249V182.224C72.6619 180.686 73.1827 178.876 73.1827 176.966ZM62.7671 181.505C60.2376 181.505 58.1793 179.446 58.1793 176.917C58.1793 174.387 60.2376 172.329 62.7671 172.329C65.2966 172.329 67.3549 174.387 67.3549 176.917C67.3549 179.446 65.2966 181.505 62.7671 181.505Z" fill="white"/>
<path d="M177.759 75.8857H77.1744C73.9559 75.8857 71.3467 78.4949 71.3467 81.7135V143.835C71.3467 147.054 73.9559 149.663 77.1744 149.663H177.759C180.978 149.663 183.587 147.054 183.587 143.835V81.7135C183.587 78.4949 180.978 75.8857 177.759 75.8857Z" fill="white"/>
<path d="M97.6088 93.4678H82.6302C81.5071 93.4678 80.5967 94.3782 80.5967 95.5013V110.48C80.5967 111.603 81.5071 112.513 82.6302 112.513H97.6088C98.7319 112.513 99.6423 111.603 99.6423 110.48V95.5013C99.6423 94.3782 98.7319 93.4678 97.6088 93.4678Z" fill="#91BAE5"/>
<path d="M121.862 93.4678H106.883C105.76 93.4678 104.85 94.3782 104.85 95.5013V110.48C104.85 111.603 105.76 112.513 106.883 112.513H121.862C122.985 112.513 123.895 111.603 123.895 110.48V95.5013C123.895 94.3782 122.985 93.4678 121.862 93.4678Z" fill="#91BAE5"/>
<path d="M146.14 93.4678H131.161C130.038 93.4678 129.128 94.3782 129.128 95.5013V110.48C129.128 111.603 130.038 112.513 131.161 112.513H146.14C147.263 112.513 148.174 111.603 148.174 110.48V95.5013C148.174 94.3782 147.263 93.4678 146.14 93.4678Z" fill="#91BAE5"/>
<path d="M170.394 93.4678H155.415C154.292 93.4678 153.382 94.3782 153.382 95.5013V110.48C153.382 111.603 154.292 112.513 155.415 112.513H170.394C171.517 112.513 172.427 111.603 172.427 110.48V95.5013C172.427 94.3782 171.517 93.4678 170.394 93.4678Z" fill="#EE7716"/>
<path d="M97.6088 119.159H82.6302C81.5071 119.159 80.5967 120.07 80.5967 121.193V136.171C80.5967 137.294 81.5071 138.205 82.6302 138.205H97.6088C98.7319 138.205 99.6423 137.294 99.6423 136.171V121.193C99.6423 120.07 98.7319 119.159 97.6088 119.159Z" fill="#91BAE5"/>
<path d="M121.862 119.159H106.883C105.76 119.159 104.85 120.07 104.85 121.193V136.171C104.85 137.294 105.76 138.205 106.883 138.205H121.862C122.985 138.205 123.895 137.294 123.895 136.171V121.193C123.895 120.07 122.985 119.159 121.862 119.159Z" fill="#91BAE5"/>
<path d="M146.14 119.159H131.161C130.038 119.159 129.128 120.07 129.128 121.193V136.171C129.128 137.294 130.038 138.205 131.161 138.205H146.14C147.263 138.205 148.174 137.294 148.174 136.171V121.193C148.174 120.07 147.263 119.159 146.14 119.159Z" fill="#91BAE5"/>
<path d="M170.394 119.159H155.415C154.292 119.159 153.382 120.07 153.382 121.193V136.171C153.382 137.294 154.292 138.205 155.415 138.205H170.394C171.517 138.205 172.427 137.294 172.427 136.171V121.193C172.427 120.07 171.517 119.159 170.394 119.159Z" fill="#91BAE5"/>
<path d="M179.768 156.755H113.976C111.867 156.755 110.157 158.465 110.157 160.574V201.195C110.157 203.304 111.867 205.014 113.976 205.014H179.768C181.877 205.014 183.587 203.304 183.587 201.195V160.574C183.587 158.465 181.877 156.755 179.768 156.755Z" fill="white"/>
<path d="M173.617 162.235H121.465C120.342 162.235 119.432 163.146 119.432 164.269V171.163C119.432 172.286 120.342 173.196 121.465 173.196H173.617C174.74 173.196 175.651 172.286 175.651 171.163V164.269C175.651 163.146 174.74 162.235 173.617 162.235Z" fill="#91BAE5"/>
<path d="M120.151 180.389H145.769" stroke="#010101" stroke-width="1.3" stroke-linecap="round" stroke-linejoin="round"/>
<path d="M120.151 186.638H174.907" stroke="#010101" stroke-width="1.3" stroke-linecap="round" stroke-linejoin="round"/>
<path d="M120.151 193.508H174.907" stroke="#010101" stroke-width="1.3" stroke-linecap="round" stroke-linejoin="round"/>
<path d="M215.082 236.385H176.941C174.38 236.385 172.304 238.461 172.304 241.022V274.104C172.304 276.665 174.38 278.741 176.941 278.741H215.082C217.643 278.741 219.719 276.665 219.719 274.104V241.022C219.719 238.461 217.643 236.385 215.082 236.385Z" fill="#EE7716"/>
<path d="M205.41 255.703L203.848 255.43C203.674 254.76 203.402 254.091 203.054 253.496L203.972 252.206C204.294 251.735 204.245 251.09 203.848 250.669L202.906 249.726C202.484 249.329 201.839 249.28 201.368 249.627L200.079 250.545C199.459 250.197 198.814 249.925 198.144 249.751L197.871 248.164C197.772 247.593 197.301 247.172 196.706 247.172H195.367C194.772 247.172 194.276 247.593 194.176 248.164L193.904 249.726C193.234 249.9 192.564 250.173 191.969 250.52L190.68 249.652C190.209 249.329 189.564 249.379 189.142 249.776L188.2 250.718C187.778 251.14 187.729 251.784 188.076 252.256L188.993 253.545C188.646 254.165 188.373 254.81 188.2 255.48L186.637 255.752C186.067 255.852 185.646 256.348 185.646 256.943V258.257C185.646 258.852 186.067 259.348 186.637 259.447L188.2 259.72C188.373 260.39 188.646 261.059 188.993 261.654L188.076 262.944C187.753 263.415 187.803 264.06 188.2 264.482L189.142 265.424C189.564 265.846 190.209 265.895 190.68 265.548L191.969 264.63C192.589 264.978 193.234 265.25 193.904 265.424L194.176 266.986C194.276 267.557 194.772 267.978 195.367 267.978H196.706C197.301 267.978 197.797 267.557 197.896 266.986L198.169 265.424C198.839 265.25 199.508 264.978 200.103 264.63L201.368 265.523C201.839 265.846 202.484 265.796 202.906 265.399L203.848 264.457C204.27 264.035 204.319 263.39 203.972 262.919L203.054 261.605C203.402 260.985 203.674 260.34 203.848 259.671L205.41 259.398C205.981 259.299 206.402 258.803 206.402 258.207V256.893C206.402 256.323 205.981 255.827 205.41 255.728V255.703ZM196.011 261.679C193.73 261.679 191.87 259.819 191.87 257.538C191.87 255.256 193.73 253.396 196.011 253.396C198.293 253.396 200.153 255.256 200.153 257.538C200.153 259.819 198.293 261.654 196.011 261.654V261.679Z" fill="white"/>
<path d="M259.497 53.8886H289.082C296.397 53.8886 302.324 47.9617 302.324 40.646C302.324 33.3303 296.397 27.4033 289.082 27.4033H259.497C252.181 27.4033 246.254 33.3303 246.254 40.646C246.254 47.9617 252.181 53.8886 259.497 53.8886Z" fill="#91BAE5"/>
<path d="M269.912 50.9619L260.315 60.3856L258.579 50.2676L269.912 50.9619Z" fill="#91BAE5"/>
<path d="M269.863 36.4305C268.474 35.0666 266.267 35.0914 264.928 36.4801L264.035 37.3977L263.117 36.5049C261.754 35.141 259.522 35.1658 258.182 36.5545C256.819 37.9184 256.843 40.1503 258.232 41.4895L261.63 44.8374C262.175 45.3581 262.845 45.6805 263.539 45.8045C264.605 45.9781 265.746 45.6309 266.565 44.7878L269.912 41.3655C271.252 39.9768 271.252 37.7696 269.863 36.4305Z" fill="white"/>
<path d="M276.534 37.6211H290.174" stroke="white" stroke-width="1.02" stroke-linecap="round" stroke-linejoin="round"/>
<path d="M276.534 41.3906H283.726" stroke="white" stroke-width="1.02" stroke-linecap="round" stroke-linejoin="round"/>
<path d="M231.846 316.733L223.142 321.519C222.224 322.015 221.654 323.181 221.951 324.297C222.175 325.165 222.919 325.834 224.853 325.884C229.168 325.958 248.214 322.784 248.214 322.784V325.512L257.116 325.562C257.116 325.562 257.662 312.617 254.984 310.955L231.871 316.708L231.846 316.733Z" fill="#1C0908"/>
<path d="M243.527 307.21L231.871 316.733C231.871 316.733 233.384 321.048 240.03 318.171C246.676 315.295 255.009 310.98 255.009 310.98L253.793 305.995L243.551 307.21H243.527Z" fill="#F9C795"/>
<path d="M253.768 305.996L254.983 271.426L243.402 270.483V310.955L253.768 305.996Z" fill="#F9C795"/>
<path d="M233.16 167.642L238.021 302.25H260.439L261.58 156.755L233.16 167.642Z" fill="#3E1D1C"/>
<path d="M235.69 165.261L246.974 230.854C248.338 238.939 256.646 243.874 264.408 241.22C270.111 239.261 273.806 233.706 273.36 227.68L271.203 197.896C270.111 187.778 272.616 174.709 261.581 156.755L235.69 165.261Z" fill="#5B302F"/>
<path d="M294.984 313.411L290.149 322.09C289.628 323.008 289.777 324.297 290.595 325.066C291.24 325.686 292.232 325.86 293.893 324.868C297.588 322.661 312.046 309.864 312.046 309.864L313.509 312.195L321.073 307.508C321.073 307.508 314.675 296.25 311.525 296.274L294.984 313.435V313.411Z" fill="#1C0908"/>
<path d="M299.82 299.151L294.984 313.41C294.984 313.41 298.531 316.262 302.647 310.31C306.764 304.359 311.525 296.274 311.525 296.274L307.855 292.703L299.82 299.176V299.151Z" fill="#F9C795"/>
<path d="M307.88 292.703L290.57 262.746L280.254 268.078L301.73 302.4L307.88 292.703Z" fill="#F9C795"/>
<path d="M248.66 235.442L290.322 297.613L309.765 285.14L269.467 217.513L248.66 235.442Z" fill="#5B302F"/>
<path d="M217.562 58.7495C217.562 58.7495 208.287 57.5344 207.096 66.3132C206.204 72.8353 209.204 76.0592 206.848 81.2918C204.492 86.5492 208.907 91.2362 208.907 91.2362C208.907 91.2362 219.868 96.32 231.796 85.9044L217.562 58.7495Z" fill="#EE7716"/>
<path d="M221.157 88.0865L226.167 101.131L236.681 98.3285L226.985 79.5557L221.157 88.0865Z" fill="#F9C795"/>
<path d="M223.563 94.3113L225.72 84.7637L221.777 89.7235L223.563 94.3113Z" fill="#010101"/>
<path d="M216.371 60.7083C216.371 60.7083 210.122 62.0226 210.122 69.9583C210.122 69.9583 209.824 72.9838 210.221 81.2418C210.494 87.0944 213.271 91.1366 218.752 90.5662C221.405 90.2935 224.208 88.6815 226.688 86.5736L230.184 83.0026C238.269 73.1326 229.837 58.278 217.289 60.5347C216.991 60.5843 216.694 60.6587 216.371 60.7083Z" fill="#F9C795"/>
<path d="M210.643 76.6289L208.436 80.5223C208.188 80.9439 208.312 81.5639 208.857 81.5887L211.734 81.9607L210.668 76.6289H210.643Z" fill="#F9C795"/>
<path d="M225.373 74.323C225.596 72.5374 226.811 60.0636 217.462 61.6755C216.024 61.9235 215.28 59.9891 216.52 59.2204C219.868 57.1373 225.15 55.6989 232.838 58.65C235.962 59.8404 240.228 63.957 240.252 67.9744C240.252 76.6293 237.376 81.0187 232.292 85.4577C232.019 85.6809 231.622 85.6065 231.474 85.3089L228.2 78.9852C228.2 78.9852 228.2 78.9356 228.175 78.9108C227.803 77.77 225.993 75.3645 225.497 74.6949C225.423 74.5958 225.373 74.447 225.398 74.2982L225.373 74.323Z" fill="#EE7716"/>
<path d="M219.124 58.6003C207.37 64.0065 224.58 76.902 224.58 76.902L229.416 67.3791C229.416 67.3791 221.083 57.6827 219.124 58.6003Z" fill="#EE7716"/>
<path d="M211.337 69.3875L217.561 71.4955C217.561 71.4955 216.47 69.4867 214.288 68.4204C211.337 66.982 211.362 69.3875 211.362 69.3875H211.337Z" fill="#010101"/>
<path d="M212.651 73.6283C212.651 73.6283 214.734 74.0747 214.808 76.1578C214.883 78.2409 212.601 78.0921 212.601 78.0921C212.601 78.0921 210.642 75.5626 212.651 73.6035V73.6283Z" fill="white"/>
<mask id="mask0_5337_15864" style="mask-type:luminance" maskUnits="userSpaceOnUse" x="211" y="73" width="4" height="6">
<path d="M212.651 73.6283C212.651 73.6283 214.734 74.0747 214.808 76.1578C214.883 78.2409 212.601 78.0921 212.601 78.0921C212.601 78.0921 210.642 75.5626 212.651 73.6035V73.6283Z" fill="white"/>
</mask>
<g mask="url(#mask0_5337_15864)">
<path d="M213.072 73.1074C213.072 73.1074 214.684 76.1329 212.601 78.1416L211.435 78.0424L211.386 74.7194L213.072 73.1322V73.1074Z" fill="#010101"/>
</g>
<path d="M212.105 72.1902C212.676 72.2646 212.998 72.4382 213.395 72.6366C213.767 72.835 214.114 73.1078 214.387 73.4054C214.957 74.0254 215.205 74.8189 215.23 75.5133C215.23 75.7365 215.057 75.9349 214.833 75.9349C214.685 75.9349 214.536 75.8605 214.461 75.7365C214.164 75.2157 213.792 74.8933 213.37 74.7693C213.172 74.6949 212.949 74.6701 212.75 74.6949C212.577 74.6949 212.279 74.7445 212.229 74.8189C211.709 75.7117 210.543 75.9845 209.675 75.4637C208.782 74.9429 208.51 73.7774 209.03 72.9094C209.427 72.2398 210.171 71.9175 210.89 72.0167L212.155 72.1902H212.105Z" fill="#010101"/>
<path d="M210.618 83.0763C209.874 83.2002 209.824 84.0434 210.494 84.341C210.494 84.341 209.601 85.2586 210.965 85.5561C212.329 85.8537 213.593 83.5226 213.593 83.5226C211.932 83.8946 211.585 82.9027 210.618 83.0763Z" fill="#E41B1C"/>
<path d="M226.266 79.6298C226.985 84.8624 226.39 90.6406 226.39 90.6406C226.39 90.6406 241.219 95.402 247.965 78.5387C247.965 78.5387 243.65 76.8772 242.335 73.1821C241.021 69.4871 242.335 56.6164 225.001 56.9884C225.001 56.9884 225.447 73.7525 226.266 79.6298Z" fill="#EE7716"/>
<path d="M231.945 76.8026C232.218 78.9849 230.656 80.9936 228.473 81.2664C226.291 81.5392 224.282 79.9769 224.009 77.7946C223.737 75.6122 225.299 73.6035 227.481 73.3307C229.664 73.0579 231.672 74.6203 231.945 76.8026Z" fill="#F9C795"/>
<path d="M226.267 78.9846C226.267 78.9846 226.415 75.9344 228.92 75.8848" stroke="#010101" stroke-width="0.51" stroke-linecap="round" stroke-linejoin="round"/>
<path d="M252.057 108.347L276.633 128.26C280.155 131.261 280.427 136.618 277.228 139.965C274.302 143.016 269.516 143.288 266.242 140.585L239.559 119.457L252.032 108.371L252.057 108.347Z" fill="#F9C795"/>
<path d="M266.813 115.663C266.813 115.663 265.771 123.598 251.958 132.675L233.185 118.713C227.953 114.819 227.184 107.256 231.524 102.395C235.119 98.3529 241.121 97.5097 245.709 100.386L266.813 115.663Z" fill="#2279BE"/>
<path d="M266.366 140.858L290.744 172.179L296.72 165.161L278.493 130.368C275.517 126.376 269.689 126.004 266.242 129.599C263.217 132.749 263.266 137.758 266.366 140.858Z" fill="#F9C795"/>
<path d="M289.33 170.841L289.082 172.403C288.735 174.511 288.908 176.668 289.553 178.702L290.694 182.273C290.966 183.116 291.934 183.513 292.727 183.116C293.397 182.769 293.794 182.05 293.719 181.306L293.347 177.338L301.283 188.572C301.655 189.142 302.448 189.241 302.944 188.795L303.292 188.497C303.688 188.15 303.788 187.555 303.54 187.109L298.481 179.371L305.523 187.456C305.92 187.977 306.714 188.051 307.185 187.58L307.433 187.357C307.83 186.96 307.879 186.34 307.532 185.869L301.704 178.38L307.383 183.091C307.929 183.562 308.747 183.414 309.094 182.794L309.169 182.67C309.417 182.248 309.342 181.703 308.995 181.355L303.44 176.024L306.912 178.107C307.557 178.627 308.524 178.305 308.698 177.487C308.797 177.115 308.673 176.693 308.4 176.42L294.265 163.178L291.363 166.476C290.297 167.716 289.578 169.204 289.33 170.816V170.841Z" fill="#F9C795"/>
<path d="M233.284 97.9318C233.284 97.9318 223.612 96.9894 223.488 114.448C223.364 131.956 228.895 140.189 233.16 167.642C233.16 167.642 249.552 165.633 261.555 156.78C261.555 156.78 262.299 92.5008 233.259 97.9566L233.284 97.9318Z" fill="#386EB5"/>
<path d="M231.325 121.317L208.486 143.19C205.063 146.29 199.731 145.893 196.805 142.297C194.152 138.999 194.474 134.213 197.574 131.336L221.902 107.554L231.325 121.342V121.317Z" fill="#F9C795"/>
<path d="M225.101 135.179C225.101 135.179 217.14 134.907 208.932 118.663L225.001 101.651C229.49 96.9145 237.078 97.0385 241.393 101.924C244.965 105.991 245.113 112.017 241.716 116.233L225.076 135.155L225.101 135.179Z" fill="#386EB5"/>
<path d="M227.308 132.674L238.294 120.176" stroke="#010101" stroke-width="0.51" stroke-linecap="round" stroke-linejoin="round"/>
<path d="M208.088 131.559L175.527 106.934L171.262 113.629L196.978 142.52C200.103 146.215 205.807 146.19 208.931 142.471C211.659 139.197 211.287 134.361 208.088 131.559Z" fill="#F9C795"/>
<path d="M179.843 113.728C178.628 117.845 174.635 117.696 166.798 115.489C162.657 114.323 161.144 111.397 162.384 107.256C163.599 103.139 167.939 100.783 172.081 101.998C176.197 103.214 181.083 109.587 179.843 113.703V113.728Z" fill="#F9C795"/>
<path d="M173.519 102.619L163.574 96.8406C162.929 96.3942 162.012 96.543 161.541 97.1878C161.144 97.7333 161.243 98.4773 161.739 98.9237L169.452 105.446L173.494 102.619H173.519Z" fill="#F9C795"/>
</svg>
