<svg width="330" height="341" viewBox="0 0 330 341" fill="none" xmlns="http://www.w3.org/2000/svg">
<g clip-path="url(#clip0_5251_24219)">
<path d="M257.935 194.052C261.159 185.62 262.572 178.304 262.647 171.981C262.647 171.956 262.647 171.931 262.647 171.881C262.746 167.492 263.961 154.001 256.918 145.024C245.784 131.757 227.705 134.485 227.705 134.485C239.683 144.776 246.949 157.87 251.289 169.302C254.042 177.089 256.05 185.893 257.315 195.614C257.315 195.639 257.29 195.688 257.265 195.713C257.265 195.713 257.29 195.688 257.315 195.614C258.53 205.062 259.051 215.354 258.803 226.414C257.885 269.937 257.538 287.569 257.538 287.643H258.357C258.357 287.643 258.704 269.937 259.621 226.439C259.869 214.784 259.299 203.946 257.91 194.052H257.935Z" fill="#D64551"/>
<path d="M317.304 241.269C317.304 241.269 307.087 223.438 292.604 221.802C278.295 220.19 267.16 230.258 262.126 247.94C261.977 248.386 261.928 248.634 261.928 248.634C261.928 248.609 261.977 248.584 261.977 248.56C261.804 249.155 261.63 249.75 261.481 250.37C261.829 239.93 262.3 229.316 262.895 223.761C263.317 219.694 264.209 215.676 265.474 211.684C298.779 196.879 298.333 150.529 298.333 150.529C263.044 171.683 265.524 193.456 265.35 209.774C263.813 214.362 262.721 218.999 262.225 223.661C261.531 230.233 260.985 243.773 260.638 255.826C260.589 256.595 260.539 257.363 260.514 258.157L260.291 268.597C260.142 274.673 259.845 289.106 259.845 289.23H260.539C260.539 289.23 260.762 278.542 260.787 277.748C260.787 277.748 260.787 277.674 260.787 277.525C260.787 277.475 260.787 277.426 260.787 277.376C260.787 276.607 260.861 274.4 260.961 268.845C261.06 265.101 261.159 260.587 261.308 255.875C261.556 252.701 262.225 249.75 263.242 246.973C264.185 245.981 265.375 244.989 266.689 244.021C278.618 236.805 304.359 239.334 317.304 241.244V241.269Z" fill="#EA6D75"/>
<path d="M252.827 224.579C253.149 210.592 256.72 191.869 226.937 171.856C226.937 171.856 224.928 210.741 252.132 225.125C253.422 229.985 254.315 234.846 254.612 239.706C255.579 255.206 254.811 287.544 254.811 287.792H255.629C255.629 287.593 256.398 255.206 255.431 239.657C255.108 234.623 254.191 229.588 252.852 224.604L252.827 224.579Z" fill="#D64551"/>
<path d="M262.126 247.965C262.126 247.965 281.097 215.33 311.947 238.07" stroke="#D64551" stroke-width="0.51" stroke-miterlimit="10"/>
<path d="M265.747 210.89C265.747 210.89 272.616 182.62 296.175 153.208" stroke="#D64551" stroke-width="0.51" stroke-miterlimit="10"/>
<path d="M210.99 303.366C244.048 303.812 281.618 304.705 281.618 304.705C281.618 304.705 290.546 304.705 290.546 299.696C290.546 297.761 289.851 289.255 267.706 296.199C269.268 295.232 277.625 292.082 274.377 287.246C272.343 284.196 268.276 286.75 266.863 287.916C269.342 284.568 270.235 270.16 261.407 263.142C248.189 252.627 235.442 261.679 233.037 266.638C231.822 261.778 226.267 258.108 222.596 257.19C214.239 255.107 208.783 255.727 200.972 259.372C198.219 260.662 194.499 265.076 192.664 267.506C189.787 271.326 189.341 276.384 189.192 281.171C189.068 284.742 189.068 288.338 189.143 291.933" fill="#F5AFBA"/>
<path opacity="0.15" d="M195.615 254.04C194.325 253.321 193.606 252.974 193.606 252.974L171.485 245.435C158.664 238.243 150.456 218.925 142.768 198.317C143.959 197.846 145.198 197.35 146.488 196.804C200.227 173.716 163.376 126.97 149.142 118.142C134.907 109.313 127.492 103.014 125.31 92.5988C123.127 82.1832 116.159 67.4279 95.8733 71.5197C95.8733 71.5197 79.0348 68.3454 72.3639 98.1538C70.3304 104.974 69.512 109.884 67.0321 114.05C56.2198 116.232 46.5978 123.474 39.4805 133.79C16.4918 167.095 15.6734 306.788 79.1588 330.57C131.807 350.285 230.358 341.506 234.599 308.102C238.294 278.963 204.319 258.727 195.615 254.04Z" fill="#BDADB1"/>
<path d="M245.386 308.103C241.145 341.507 142.594 350.286 89.946 330.571C26.4607 306.813 27.2542 167.096 50.2677 133.791C66.3126 110.554 95.1538 102.842 121.515 133.791C126.673 139.842 131.757 147.381 136.618 156.581C151.919 185.521 160.375 233.16 182.273 245.46L204.393 252.999C204.393 252.999 205.137 253.347 206.402 254.066C215.131 258.753 249.106 278.989 245.386 308.128V308.103Z" fill="#3B629D"/>
<g style="mix-blend-mode:multiply" opacity="0.44">
<path d="M204.369 252.975L182.248 245.436C160.351 233.161 151.919 185.522 136.593 156.556C131.733 147.356 126.649 139.817 121.491 133.766C104.627 134.709 105.768 132.973 105.768 132.973C105.768 132.973 78.4148 138.205 73.8766 160.748C73.4302 163.004 73.2566 162.731 73.207 165.484C70.0327 163.525 60.9811 162.905 60.5843 163.376C60.014 164.071 68.7184 166.426 73.207 170.543C73.207 170.543 64.949 169.452 60.4355 171.089C65.2713 171.857 73.3062 174.66 73.3062 174.66C73.3062 174.66 58.9724 180.14 60.5595 180.364C62.9154 180.711 73.6534 179.545 73.6534 179.545C74.2734 187.902 75.4389 196.185 76.7533 210.395C78.0924 225.076 84.6393 252.553 93.319 265.821C91.0623 267.408 86.5489 270.706 81.9859 274.773C75.5381 280.527 78.1668 282.263 82.7546 280.353C87.3176 278.443 101.875 273.781 101.875 273.781C101.875 273.781 91.6575 282.238 92.4262 283.13C93.195 284.023 102.643 277.625 107.33 275.939C114.423 278.071 123.078 278.543 131.336 277.972C132.849 282.783 135.452 289.429 142.495 289.405C148.224 289.38 148.769 282.833 154.448 279.832C169.824 271.723 191.969 260.911 199.855 260.514C204.642 260.291 206.154 257.29 206.378 254.016C205.088 253.297 204.369 252.95 204.369 252.95V252.975Z" fill="#ACD7EF"/>
</g>
<path d="M94.9055 120.127C82.5805 115.068 66.7091 120.573 60.5838 132.526C55.4752 142.496 54.3344 154.548 53.764 165.559C52.8465 183.364 54.4336 201.244 57.0375 218.852C58.699 229.962 60.8317 240.997 63.3612 251.933C64.7252 257.811 66.1883 263.639 67.7755 269.466C68.6186 272.541 69.6602 275.517 71.0241 278.394C75.9839 289.033 84.738 297.291 94.8063 303.094C104.875 308.897 117.076 312.765 128.88 315.096C140.064 317.304 151.447 318.345 162.83 318.618C170.567 318.816 178.354 318.767 186.067 318.097C187.034 318.023 188.026 317.923 188.993 317.799C190.084 317.675 188.745 317.8 189.514 317.75C189.662 317.75 189.811 317.725 189.96 317.7C190.134 317.7 190.307 317.676 190.481 317.651C192.564 317.428 194.622 317.056 196.681 316.684C209.502 314.328 223.215 310.509 233.805 302.573C236.508 300.539 238.69 298.184 240.699 295.505C241.691 294.191 239.459 292.901 238.492 294.216C234.474 299.547 227.828 303.218 221.876 305.871C215.925 308.525 209.204 310.558 202.632 312.071C200.177 312.641 197.722 313.113 195.267 313.559C194.374 313.708 193.457 313.856 192.564 314.005C192.242 314.055 191.944 314.104 191.622 314.154C191.026 314.228 191.77 314.154 191.225 314.204C190.456 314.303 189.662 314.377 188.894 314.427C182.719 314.824 176.544 315.096 170.369 315.096C160.028 315.096 149.662 314.526 139.42 313.088C127.938 311.501 116.456 308.897 105.767 304.383C95.0791 299.87 85.8291 293.794 79.183 284.792C75.8103 280.229 73.3056 275.12 71.7185 269.689C68.569 258.753 65.9899 247.618 63.758 236.459C59.9886 217.711 57.4095 198.665 56.8639 179.545C56.5167 166.799 56.8143 153.506 60.311 141.156C61.3773 137.387 62.7909 133.518 65.1716 130.344C69.7594 124.268 77.4967 120.598 85.2091 120.276C88.3338 120.152 91.5825 120.499 94.6327 121.243C95.3271 121.416 95.5503 120.449 94.9303 120.201L94.9055 120.127Z" fill="#72B1CC"/>
<path d="M118.192 260.985C116.158 262.324 113.852 262.919 111.571 263.787C109.19 264.705 106.76 265.523 104.354 266.366C99.3199 268.102 94.3105 269.962 89.4003 272.045C85.2837 273.806 81.6382 275.864 78.2903 278.89C74.4961 282.337 71.2474 286.478 68.3212 290.694C65.3949 294.91 62.3694 299.771 60.9559 304.805C60.7327 305.598 61.9478 306.169 62.3198 305.375C66.5852 296.795 72.4626 288.958 79.4807 282.411C82.655 279.435 86.0524 277.303 90.0203 275.567C94.7817 273.459 99.7167 271.673 104.528 269.689C107.156 268.598 109.735 267.334 112.24 265.994C114.497 264.779 116.481 263.143 118.589 261.754C119.035 261.456 118.613 260.737 118.167 261.035L118.192 260.985Z" fill="#72B1CC"/>
<path d="M85.7548 141.007C84.6884 138.602 81.3654 136.792 79.1583 135.601C76.4552 134.113 73.6033 132.997 70.6274 132.204C67.6515 131.41 64.7749 130.989 61.7742 130.865C60.1622 130.79 58.5751 130.815 56.9632 130.914C55.5496 131.013 54.0369 131.038 52.7722 131.708C52.1522 132.03 52.2762 133.072 52.9705 133.22C54.2849 133.493 55.624 133.22 56.9632 133.22C58.4015 133.171 59.8399 133.22 61.2782 133.295C64.2045 133.493 67.106 134.014 69.933 134.783C72.7601 135.552 75.3888 136.494 77.9679 137.684C79.2823 138.279 80.547 138.949 81.8365 139.619C83.0269 140.214 84.2668 141.082 85.5812 141.28C85.73 141.28 85.8044 141.181 85.7548 141.057V141.007Z" fill="#72B1CC"/>
<path d="M130.046 236.557C130.046 236.557 210.196 210.642 233.706 222.496C257.215 234.375 248.411 251.66 229.539 259.149C211.883 266.167 169.923 268.448 169.923 268.448L130.046 236.532V236.557Z" fill="#559696"/>
<path d="M190.804 243.972C190.804 243.972 205.733 230.332 222.175 228.72C222.175 228.72 204.121 227.902 186.34 241.566C168.535 255.23 190.804 243.947 190.804 243.947V243.972Z" fill="#3E7878"/>
<path d="M153.109 174.907C151.597 176.643 149.761 178.28 147.356 179.966C146.934 180.289 141.627 168.336 140.66 167.12C140.71 158.218 140.809 149.736 140.809 149.736C140.809 149.736 146.86 164.318 153.109 174.907Z" fill="#ED6C81"/>
<path d="M106.661 71.5445C106.661 71.5445 89.8226 68.3702 83.1517 98.1786C79.655 109.933 79.7542 116.083 68.6443 122.333C57.5343 128.582 35.612 142.147 47.1435 163.474C53.1697 172.947 57.0631 178.651 55.0048 187.257C52.9217 195.862 59.6174 220.884 94.5592 212.006C129.501 203.128 138.503 204.889 157.276 196.804C211.015 173.716 174.164 126.97 159.929 118.142C145.695 109.313 138.28 103.014 136.097 92.5988C133.915 82.1832 126.947 67.4279 106.661 71.5197V71.5445Z" fill="#221D1E"/>
<path d="M114.374 73.9752C109.215 73.1568 103.834 74.1983 99.271 76.6534C94.6832 79.1333 90.9385 82.9524 88.1611 87.3418C87.8139 87.8874 87.4171 88.4082 87.1195 88.9785L86.2267 90.7145C85.6564 91.88 84.9868 92.996 84.5652 94.2359L83.1269 97.8566L81.6637 101.477C80.6966 103.908 79.8038 106.338 78.6879 108.719C77.5719 111.099 76.1584 113.356 74.2736 115.216C72.4137 117.101 70.1322 118.489 67.7763 119.655C65.3956 120.771 62.9901 121.713 60.6342 122.854C55.9472 125.086 51.409 127.69 47.4163 131.013C45.4572 132.699 43.6221 134.559 42.1094 136.642C40.5966 138.725 39.4311 141.056 38.7119 143.511C37.224 148.471 38.0423 153.828 39.9519 158.589C41.3406 161.416 42.7541 164.243 43.9693 167.17C45.1844 170.096 46.2012 173.196 46.2756 176.445C46.3252 178.056 46.1516 179.668 45.73 181.231C45.5812 182.024 45.2588 182.768 45.0356 183.537C44.7877 184.256 44.6141 185 44.5149 185.769C44.0685 188.819 44.3661 191.993 45.1844 194.994C45.5812 196.482 46.1516 197.945 46.8708 199.334C47.5899 200.723 48.4083 202.037 49.4003 203.227C51.3346 205.658 53.8393 207.592 56.592 209.03C62.1717 211.882 68.5699 212.626 74.8192 212.403C77.9439 212.254 81.0686 211.882 84.1932 211.411C87.3179 210.94 90.4178 210.444 93.5176 209.874C99.7174 208.758 105.892 207.394 111.993 205.831C118.093 204.244 124.144 202.459 130.071 200.301C135.998 198.168 141.826 195.713 147.356 192.688C152.837 189.662 158.169 186.091 162.161 181.256C164.145 178.825 165.583 176.048 166.352 172.997L166.972 170.716L167.493 168.41C167.865 166.872 168.088 165.31 168.361 163.772C169.254 157.573 169.378 151.174 167.964 145.049C167.245 141.999 166.253 138.998 164.716 136.27C163.203 133.517 161.318 130.988 159.086 128.806C156.78 126.698 154.226 124.788 151.82 122.73C149.39 120.696 147.034 118.564 144.852 116.282C142.669 114.001 140.66 111.496 139.098 108.719C137.536 105.941 136.469 102.891 136.073 99.7165C135.552 93.4423 133.543 87.2674 130.096 81.9852C128.36 79.3813 126.178 76.9758 123.45 75.3887C120.747 73.7768 117.424 73.2064 114.324 73.9256L114.374 73.9752ZM114.374 73.9752C117.449 73.2312 120.797 73.752 123.549 75.3639C126.302 76.9262 128.534 79.3317 130.295 81.9356C133.816 87.2178 135.874 93.4175 136.445 99.7165C136.866 102.841 137.933 105.842 139.495 108.545C141.032 111.273 143.066 113.728 145.224 115.985C147.406 118.241 149.762 120.374 152.167 122.383C154.573 124.416 157.102 126.301 159.458 128.459C161.74 130.69 163.674 133.27 165.211 136.047C166.799 138.824 167.791 141.875 168.535 144.975C169.998 151.199 169.874 157.647 169.006 163.921C168.733 165.483 168.51 167.071 168.138 168.608L167.617 170.939L166.997 173.245C166.799 174.014 166.6 174.783 166.303 175.527C166.055 176.296 165.707 177.015 165.335 177.734C165.013 178.478 164.517 179.123 164.12 179.817C163.674 180.487 163.178 181.107 162.707 181.752C158.64 186.711 153.258 190.332 147.728 193.407C142.173 196.482 136.321 198.962 130.369 201.12C124.417 203.302 118.341 205.112 112.216 206.724C106.091 208.311 99.9158 209.7 93.6664 210.841C90.5666 211.436 87.4419 211.932 84.2924 212.403C81.1678 212.874 77.9935 213.246 74.8192 213.395C68.4955 213.593 61.9237 212.825 56.1704 209.874C53.3433 208.361 50.7394 206.352 48.7307 203.823C47.7139 202.583 46.846 201.219 46.1268 199.78C45.3828 198.342 44.8124 196.829 44.3909 195.292C43.5477 192.192 43.2501 188.943 43.7213 185.744C43.8453 184.951 44.0189 184.157 44.2917 183.388C44.5149 182.619 44.8124 181.925 44.9612 181.156C45.358 179.668 45.5316 178.106 45.482 176.569C45.4324 173.469 44.4405 170.443 43.2749 167.542C42.0598 164.64 40.671 161.813 39.2823 158.961C38.3151 156.506 37.6207 153.952 37.3728 151.298C37.1 148.67 37.3232 145.991 38.0671 143.437C38.8111 140.908 40.0014 138.502 41.5638 136.369C43.1261 134.237 44.986 132.352 46.9948 130.666C51.037 127.293 55.6248 124.689 60.3366 122.457C62.6925 121.316 65.1476 120.374 67.4787 119.283C69.785 118.142 72.0169 116.778 73.8521 114.943C75.6872 113.133 77.0759 110.926 78.1919 108.595C79.3078 106.263 80.2254 103.808 81.2174 101.403L82.7053 97.7822L84.1684 94.1615C84.6148 92.9216 85.2844 91.8056 85.8796 90.6401L86.7971 88.9041C87.1195 88.3338 87.5163 87.813 87.8635 87.2674C90.6906 82.878 94.4848 79.0589 99.1222 76.6038C103.735 74.1735 109.141 73.1816 114.299 74.0496L114.374 73.9752Z" fill="#221D1E"/>
<path d="M175.924 173.741C172.353 173.27 152.563 145.917 145.545 137.56C140.957 132.104 133.84 131.385 133.84 131.385C128.508 135.948 127.467 145.347 130.641 151.373C143.983 176.717 165.087 191.522 173.345 195.093C166.947 186.513 175.949 173.741 175.949 173.741H175.924Z" fill="#FCD7BD"/>
<path d="M160.822 156.481C160.822 159.408 158.615 165.459 157.127 168.682C156.06 170.989 154.82 173.022 153.109 174.932C151.597 176.668 149.761 178.304 147.356 179.991C146.934 180.313 141.627 168.36 140.66 167.145C140.611 167.095 140.561 167.046 140.536 167.046C139.792 166.872 139.147 166.426 138.552 165.955C137.312 165.037 136.097 164.07 134.882 163.078C133.865 162.235 132.799 161.317 132.204 160.127C131.385 158.515 131.46 156.605 131.559 154.795L131.286 129.872C137.263 129.971 142.743 132.625 146.587 137.213C147.554 138.378 148.422 139.643 149.241 140.908C152.861 146.363 157.226 151.05 160.847 156.481H160.822Z" fill="#EF7A8B"/>
<path d="M95.8235 258.604C103.586 262.919 102.966 243.774 104.379 243.997C119.531 246.502 157.474 235.764 162.186 229.49C158.863 222.918 141.999 148.298 140.784 146.339C135.874 138.477 136.271 132.377 133.791 130.046C126.574 129.5 125.458 129.103 123.152 128.955C123.623 130.889 124.714 133.369 124.938 135.898C125.334 140.362 120.821 143.784 116.58 142.346C107.925 139.37 102.197 128.607 102.197 128.607C102.197 128.607 91.2605 137.064 86.7223 140.734C85.2592 141.924 82.7049 143.834 81.4401 146.587C71.3965 168.534 83.2504 214.933 90.095 238.541C91.9053 244.791 90.2685 254.413 95.8483 258.604H95.8235Z" fill="#EF7A8B"/>
<path d="M82.0107 161.714L87.4417 192.613C87.4417 192.613 97.6093 192.39 101.329 190.927C101.329 190.927 123.747 212.304 131.262 211.262C138.776 210.245 113.778 174.535 113.778 174.535L82.0107 161.714Z" fill="#ED6C81"/>
<path d="M134.089 191.423C131.584 187.232 119.507 175.527 105.619 154.423C101.701 148.471 94.2118 147.628 94.2118 147.628C88.4832 151.67 89.7976 164.442 92.7982 170.567C104.107 193.704 125.607 210.121 128.707 210.394C123.127 201.243 134.064 191.423 134.064 191.423H134.089Z" fill="#FCD7BD"/>
<path d="M154.101 154.199C154.101 154.199 154.101 154.224 154.076 154.249C152.886 155.489 151.125 157.845 150.357 160.548C145.397 177.932 142.818 198.342 140.561 202.855C140.561 202.855 136.643 219.173 122.879 206.302C122.532 203.401 136.544 169.228 140.834 158.738C141.578 156.952 141.776 155.018 141.751 153.083C141.627 146.884 145.645 140.312 149.365 137.906C151.274 136.666 159.557 145.817 154.101 154.175V154.199Z" fill="#FCD7BD"/>
<path d="M85.2344 142.247C85.2344 142.247 77.4475 147.777 81.7873 160.97C83.1016 164.963 89.5742 188.919 89.5742 188.919C89.5742 188.919 102.519 188.72 107.801 185.025C118.639 177.462 119.234 171.535 119.234 171.535C119.234 171.535 114.522 165.856 111.124 161.02C109.091 158.143 114.026 159.135 114.026 159.135L106.239 141.553L85.2344 142.222V142.247Z" fill="#EF7A8B"/>
<mask id="mask0_5251_24219" style="mask-type:luminance" maskUnits="userSpaceOnUse" x="77" y="128" width="86" height="132">
<path d="M148.918 178.825C150.58 177.535 151.968 176.246 153.134 174.907C154.82 172.997 156.085 170.988 157.151 168.657C158.639 165.434 160.846 159.383 160.846 156.456C157.226 151.025 152.861 146.338 149.241 140.883C148.397 139.618 147.554 138.353 146.587 137.187C143.314 133.244 138.8 130.74 133.816 130.045C133.816 130.045 133.766 130.045 133.741 130.045C132.997 129.946 132.278 129.897 131.509 129.872C126.301 129.425 125.21 129.103 123.152 128.979C123.623 130.913 124.714 133.393 124.938 135.923C125.334 140.387 120.821 143.809 116.58 142.37C107.925 139.395 102.197 128.632 102.197 128.632C102.197 128.632 91.2605 137.088 86.7223 140.759C85.2592 141.949 82.7049 143.858 81.4401 146.611C71.3965 168.558 83.2504 214.957 90.095 238.566C91.9053 244.815 90.2685 254.437 95.8483 258.628C103.61 262.943 102.99 243.798 104.404 244.021C119.556 246.526 157.499 235.788 162.21 229.514C160.326 225.819 154.176 200.574 148.943 178.85L148.918 178.825Z" fill="white"/>
</mask>
<g mask="url(#mask0_5251_24219)">
<path d="M119.853 156.159C124.615 156.159 124.615 148.769 119.853 148.769C115.092 148.769 115.092 156.159 119.853 156.159Z" fill="#F5B4C1"/>
<path d="M99.6668 211.46C104.428 211.46 104.428 204.07 99.6668 204.07C94.9054 204.07 94.9054 211.46 99.6668 211.46Z" fill="#F5B4C1"/>
<path d="M114.695 220.214C119.456 220.214 119.456 212.824 114.695 212.824C109.934 212.824 109.934 220.214 114.695 220.214Z" fill="#F5B4C1"/>
<path d="M148.719 204.988C153.481 204.988 153.481 197.598 148.719 197.598C143.958 197.598 143.958 204.988 148.719 204.988Z" fill="#F5B4C1"/>
<path d="M135.972 139.543C140.734 139.543 140.734 132.153 135.972 132.153C131.211 132.153 131.211 139.543 135.972 139.543Z" fill="#F5B4C1"/>
<path d="M91.7068 141.006C96.4682 141.006 96.4682 133.616 91.7068 133.616C86.9454 133.616 86.9454 141.006 91.7068 141.006Z" fill="#F5B4C1"/>
<path d="M78.9597 194.399C83.7211 194.399 83.7211 187.009 78.9597 187.009C74.1983 187.009 74.1983 194.399 78.9597 194.399Z" fill="#F5B4C1"/>
<path d="M88.8298 235.763C93.5912 235.763 93.5912 228.373 88.8298 228.373C84.0684 228.373 84.0684 235.763 88.8298 235.763Z" fill="#F5B4C1"/>
<path d="M140.312 218.925C145.074 218.925 145.074 211.535 140.312 211.535C135.551 211.535 135.551 218.925 140.312 218.925Z" fill="#F5B4C1"/>
<path d="M129.004 179.718C133.765 179.718 133.765 172.328 129.004 172.328C124.242 172.328 124.242 179.718 129.004 179.718Z" fill="#F5B4C1"/>
<path d="M156.655 165.781C161.416 165.781 161.416 158.391 156.655 158.391C151.894 158.391 151.894 165.781 156.655 165.781Z" fill="#F5B4C1"/>
<path d="M90.2429 157.597C95.0043 157.597 95.0043 150.207 90.2429 150.207C85.4815 150.207 85.4815 157.597 90.2429 157.597Z" fill="#F5B4C1"/>
<path d="M91.4832 181.404C96.2446 181.404 96.2446 174.014 91.4832 174.014C86.7218 174.014 86.7218 181.404 91.4832 181.404Z" fill="#F5B4C1"/>
</g>
<path d="M186.018 265.646L150.183 270.532C150.183 270.532 128.459 277.947 114.671 274.971C87.6154 269.093 94.7823 240.426 98.7502 235.292C115.068 214.213 148.199 214.313 148.199 214.313L185.993 265.671L186.018 265.646Z" fill="#609FA0"/>
<path d="M223.712 325.536C223.712 325.536 214.09 315.096 218.802 308.847C223.539 302.597 229.242 305.523 233.483 309.243C237.724 312.963 255.852 327.371 244.122 336.795L223.712 325.536Z" fill="#D45A75"/>
<path d="M211.089 294.859C211.089 294.859 214.387 298.703 216.991 300.638C217.76 301.208 222.323 303.465 224.803 305.201C227.432 307.036 228.027 308.4 230.804 310.532C234.127 313.087 236.88 315.492 237.5 316.856C239.236 320.675 229.837 327.048 227.159 326.999C225.175 326.949 218.876 316.906 217.463 315.765C215.801 314.426 214.189 312.318 211.833 309.392C207.444 303.961 200.5 300.315 200.5 300.315" fill="#FCD7BD"/>
<path d="M228.151 324.767C228.151 324.767 235.963 321.419 235.467 314.476C235.467 314.476 243.253 321.072 245.833 326.627C248.412 332.182 245.113 339.746 236.434 339.721C229.044 339.721 223.34 325.164 223.34 325.164C223.34 325.164 225.051 326.181 228.126 324.767H228.151Z" fill="#EF7A8B"/>
<path d="M191.3 264.53L176.197 255.603C176.197 255.603 171.213 257.909 167.766 258.653C166.402 258.95 164.318 259.174 162.136 259.521C160.599 259.174 157.821 258.802 154.647 259.546C149.811 260.711 150.927 261.529 147.331 265.522C143.735 269.515 136.444 268.895 133.816 272.342C131.187 275.789 136.023 286.7 141.95 286.7C145.124 286.7 145.843 282.906 147.604 281.245C149.365 279.583 163.426 272.292 163.426 272.292C164.988 271.598 166.724 270.705 168.906 269.639C175.676 266.266 191.325 264.53 191.325 264.53H191.3Z" fill="#FCD7BD"/>
<g style="mix-blend-mode:multiply" opacity="0.48">
<path d="M134.014 246.253C157.871 289.974 207.94 308.524 207.94 308.524C207.94 308.524 161.616 254.908 141.801 239.682C134.882 234.35 130.716 240.202 134.014 246.253Z" fill="#89A5B0"/>
</g>
<path d="M210.047 310.855C212.378 312.071 220.661 301.977 221.306 299.522C221.306 299.522 208.187 282.51 204.021 277.575C191.647 262.919 179.421 243.402 168.187 227.878C162.706 220.29 154.721 211.783 144.032 215.007C135.278 217.661 129.872 227.58 130.467 235.566C131.063 243.551 136.072 249.924 141.181 255.678C141.181 255.678 179.693 294.86 210.047 310.855Z" fill="#609FA0"/>
<path d="M145.05 142.47C145.05 142.47 148.918 136.444 150.183 134.41C151.448 132.377 154.374 129.822 155.143 129.822C155.912 129.822 155.788 131.459 154.771 132.947C153.754 134.46 151.274 140.287 151.274 140.287L145.05 142.42V142.47Z" fill="#FCD7BD"/>
<path d="M269.02 316.683C269.02 316.683 256.968 312.888 253.57 313.93C250.148 314.972 247.792 320.105 251.388 323.974C254.984 327.867 268.127 330.347 273.484 330.719C281.866 331.289 288.239 324.643 285.263 321.345C282.287 318.022 269.59 316.782 269.59 316.782" fill="#D45A75"/>
<path d="M264.78 312.045C262.647 313.93 261.134 321.395 262.002 326.627C262.002 326.627 268.896 328.834 275.096 328.809C285.908 328.289 288.314 317.774 281.569 315.096C274.823 312.417 268.723 311.5 268.723 311.5C268.723 311.5 266.268 310.781 264.78 312.07V312.045Z" fill="#EF7A8B"/>
<path d="M123.103 128.98C124.814 131.435 126.723 141.999 121.788 143.363C117.647 144.504 104.776 137.858 102.147 128.632C102.594 128.36 102.966 128.112 103.288 127.814C104.379 126.847 104.801 125.681 105.074 123.648C105.471 120.846 105.347 117.895 105.347 117.895C105.347 117.895 119.904 118.713 119.879 118.961C119.705 120.002 119.308 122.706 120.201 126.301C120.548 127.69 121.664 128.732 123.053 128.98H123.103Z" fill="#FCD7BD"/>
<path d="M39.8131 45.0169C38.1126 45.2387 36.3752 44.9429 34.7486 44.4624C33.0851 43.9818 31.4216 43.3164 30.0908 42.1704C29.1666 41.3571 28.5012 40.2112 28.9818 38.9543C29.869 36.4406 33.1221 37.032 34.9335 38.0301C34.6377 36.4406 34.6747 34.9988 35.5249 33.668C36.2643 32.5221 37.5212 32.0415 38.852 32.3372C40.8482 32.7808 41.5505 34.9988 41.7354 36.8102C41.9202 38.9543 41.4396 41.1353 40.6633 43.1316C40.4046 43.797 40.1088 44.4254 39.8131 45.0169Z" fill="#E73149"/>
<path d="M138.81 25.4976C137.886 24.0559 137.442 22.3554 137.22 20.6919C136.962 18.9914 136.851 17.1801 137.368 15.5165C137.701 14.3336 138.514 13.2616 139.808 13.1507C142.47 12.9289 143.283 16.108 143.135 18.1782C144.429 17.254 145.76 16.6625 147.349 16.8843C148.717 17.0691 149.641 18.0303 149.937 19.3611C150.38 21.3573 148.643 22.9469 147.09 23.8341C145.242 24.9061 143.024 25.3867 140.917 25.5346C140.215 25.5715 139.512 25.5715 138.81 25.5346" fill="#E73149"/>
<path d="M180.561 102.869L167.352 104.353C165.937 104.512 164.918 105.788 165.077 107.204L168.385 136.653C168.545 138.069 169.821 139.087 171.236 138.928L184.446 137.444C185.861 137.285 186.88 136.009 186.721 134.593L183.412 105.144C183.253 103.728 181.977 102.71 180.561 102.869Z" fill="#EA6D75"/>
<path d="M187.779 126.573C188.547 131.285 187.704 136.27 187.481 137.46C187.481 137.485 187.481 137.535 187.456 137.535C187.456 137.659 187.431 137.733 187.431 137.733C187.159 138.651 186.861 139.717 186.886 141.031C187.382 160.523 186.34 182.52 185.274 188.348C184.183 194.374 179.421 198.391 173.321 195.093C168.411 192.439 166.997 186.364 166.997 186.364C169.378 173.146 179 137.287 179 136.964C173.668 130.12 177.065 123.474 180.736 119.952C181.777 118.935 182.67 119.059 183.439 119.183C183.439 119.183 186.911 121.167 187.803 126.573H187.779Z" fill="#FCD7BD"/>
<path d="M186.017 121.887L182.868 115.886C182.868 115.886 179.049 108.619 177.685 109.165C176.891 109.487 177.04 110.231 177.734 111.967C177.734 111.967 178.528 113.976 179.198 115.538C177.734 113.827 174.486 110.182 173.543 110.802C172.824 111.273 173.122 111.967 174.139 113.53C174.139 113.53 174.982 114.844 175.825 116.109C174.238 114.373 172.179 112.364 171.46 112.835C170.741 113.306 171.039 114.001 172.055 115.563C172.055 115.563 174.511 119.407 175.255 120.25C175.503 120.548 175.825 121.416 176.122 122.432C175.478 121.49 174.114 119.556 173.37 118.961C172.576 118.316 171.584 118.39 171.584 119.333C171.584 120.275 174.188 123.474 174.61 124.813C175.031 126.152 176.916 133.195 176.916 133.195L177.313 126.251L178.85 122.829C179.074 123.796 179.247 124.516 179.247 124.516L180.561 121.614C180.611 122.78 180.636 123.697 180.636 123.697L186.017 121.812V121.887Z" fill="#FCD7BD"/>
<path d="M94.931 109.661C96.1213 111.05 97.6589 112.116 99.37 112.736C99.6676 112.835 99.9652 112.934 100.213 113.108C100.511 113.306 100.709 113.604 100.908 113.901C104.082 118.34 109.637 121.093 115.043 120.473C119.482 119.977 123.599 117.076 125.558 113.108C125.979 112.24 126.326 111.298 126.525 110.355C126.525 110.256 126.574 110.157 126.574 110.058C126.748 109.19 126.798 108.322 126.847 107.429C126.847 107.007 126.847 106.561 126.847 106.115C126.847 105.445 126.847 104.8 126.847 104.155C126.847 101.328 127.591 98.5508 127.616 95.699C127.666 91.6567 126.401 86.5233 122.433 84.6138C120.102 83.4731 117.746 83.8946 115.266 83.8946C113.753 83.8946 112.315 83.3987 110.802 83.8202C108.223 84.5394 106.264 86.5977 105.644 89.1768C105.173 91.1111 106.041 92.9711 106.215 94.8806C106.388 96.8645 105.297 98.7244 103.859 100.014C103.586 100.262 100.808 102.618 100.585 102.023C99.9156 100.287 97.6341 99.4684 95.8981 100.138C94.1374 100.808 93.0215 102.692 92.9471 104.552C92.8727 106.412 93.691 108.247 94.9062 109.686L94.931 109.661Z" fill="#FCD7BD"/>
<path d="M122.284 102.494C122.334 103.511 122.83 104.156 123.4 104.106C123.971 104.081 124.392 103.412 124.343 102.37C124.293 101.354 123.797 100.808 123.227 100.858C122.656 100.882 122.235 101.478 122.284 102.494Z" fill="#6C1813"/>
<path d="M115.068 96.4184C114.175 95.7737 113.059 95.3025 111.968 95.0793C109.786 94.6577 107.703 95.3521 106.264 97.0384C105.892 97.46 106.066 98.08 106.512 98.4023C106.909 98.6999 107.678 98.8735 108.05 98.4023C108.397 98.0056 108.719 97.6832 109.091 97.4352C109.29 97.3112 109.488 97.212 109.686 97.1128C109.686 97.1128 109.984 97.0136 109.786 97.0632C109.91 97.0136 110.009 96.9888 110.133 96.964C110.207 96.964 110.306 96.9144 110.381 96.9144C110.406 96.9144 110.728 96.8648 110.579 96.8896C110.43 96.9144 110.753 96.8896 110.778 96.8896C110.852 96.8896 110.951 96.8896 111.026 96.8896C111.125 96.8896 111.249 96.8896 111.348 96.8896C111.422 96.8896 111.67 96.9392 111.373 96.8896C111.546 96.9144 111.72 96.9392 111.894 96.9888C112.067 97.0384 112.216 97.0632 112.39 97.1128C112.489 97.1376 112.662 97.1376 112.39 97.1128C112.464 97.1128 112.538 97.1624 112.613 97.1872C112.861 97.2864 113.109 97.3856 113.332 97.5096C113.431 97.5592 113.53 97.6088 113.63 97.6584C113.332 97.46 113.853 97.7824 113.63 97.6584C113.679 97.708 113.754 97.7328 113.803 97.7824C114.225 98.1048 114.944 98.2288 115.341 97.7824C115.737 97.336 115.514 96.7408 115.093 96.4184H115.068Z" fill="#6C1813"/>
<path d="M122.309 97.3855C122.309 97.3855 122.061 97.5591 122.16 97.4847C122.185 97.4847 122.235 97.4351 122.26 97.4103C122.384 97.3111 122.532 97.2367 122.656 97.1623C122.731 97.1127 122.83 97.0632 122.929 97.0384C123.004 97.0136 123.202 96.964 123.227 96.9144C123.053 96.964 123.028 96.9887 123.128 96.9639C123.152 96.9639 123.202 96.964 123.227 96.9392C123.301 96.9392 123.351 96.8896 123.425 96.8648C123.549 96.84 123.673 96.7904 123.797 96.7656C123.847 96.7656 123.971 96.716 124.02 96.7408C123.921 96.7408 123.797 96.7408 123.996 96.7408C124.169 96.7408 124.318 96.7408 124.492 96.7408H124.566C124.566 96.7408 124.64 96.7408 124.467 96.7408C124.516 96.7656 124.665 96.7656 124.739 96.7904C124.839 96.7904 124.913 96.84 125.012 96.8648C124.764 96.7656 125.235 96.9144 125.012 96.8648C125.136 96.9144 125.483 97.0135 125.558 97.1375L125.434 97.0631C125.434 97.0631 125.533 97.1127 125.583 97.1623C125.682 97.2367 125.781 97.2863 125.855 97.3607C125.93 97.4351 126.029 97.5095 126.103 97.5591C126.153 97.6087 126.153 97.6087 126.079 97.5343C126.128 97.5839 126.178 97.6335 126.227 97.6831C126.426 97.8815 126.599 98.1295 126.773 98.3527C127.095 98.7991 127.839 98.9975 128.335 98.7247C128.856 98.4271 128.807 97.8319 128.484 97.4103C127.443 95.9968 125.955 94.98 124.194 94.856C123.177 94.7816 122.086 95.0792 121.193 95.6C120.945 95.7488 120.722 95.8976 120.524 96.0712C120.077 96.4184 120.4 97.1623 120.772 97.4351C121.243 97.7823 121.838 97.8319 122.309 97.4351V97.3855Z" fill="#6C1813"/>
<path d="M110.529 102.122C110.579 103.164 111.1 103.809 111.67 103.784C112.24 103.759 112.687 103.065 112.637 102.023C112.587 100.982 112.067 100.436 111.496 100.461C110.926 100.486 110.48 101.081 110.529 102.147V102.122Z" fill="#6C1813"/>
<path d="M116.233 113.728C114.646 113.529 112.563 111.198 113.456 109.611C113.53 109.462 113.654 109.313 113.803 109.239C114.001 109.14 114.224 109.189 114.423 109.239C115.216 109.363 116.01 109.512 116.828 109.611C118.986 109.859 120.35 109.809 120.226 110.727C120.127 111.644 118.366 114 116.208 113.752L116.233 113.728Z" fill="#FCF8EE"/>
<path d="M109.612 106.784C109.537 107.578 108.149 108.099 106.562 107.925C104.974 107.752 103.734 106.958 103.834 106.164C103.908 105.371 105.297 104.85 106.884 105.024C108.471 105.197 109.711 105.991 109.612 106.784Z" fill="#F9C5AC"/>
<path d="M125.632 110.033C125.955 110.058 126.277 110.083 126.599 110.033C126.773 109.165 126.823 108.297 126.872 107.404C126.599 107.33 126.277 107.256 125.955 107.206C124.467 107.057 123.202 107.553 123.128 108.322C123.053 109.091 124.169 109.86 125.657 110.008L125.632 110.033Z" fill="#F9C5AC"/>
<path d="M101.578 109.041C101.379 107.478 100.412 106.089 98.9241 105.494C98.3289 105.246 97.6345 105.172 97.0394 105.469C96.5682 105.717 96.1714 106.164 96.1714 106.734C96.1714 107.503 96.6674 108.173 97.2378 108.619C97.8081 109.065 98.6513 109.388 99.3457 109.016C100.635 108.321 100.263 106.685 99.8168 105.569C99.2713 104.205 98.2545 103.014 97.0394 102.171C96.7914 101.998 96.0722 101.551 95.7994 101.923C95.5266 102.295 96.1466 102.866 96.3946 103.039C96.5434 103.138 96.6922 103.262 96.841 103.386C96.6922 103.262 96.841 103.386 96.8906 103.436C96.965 103.51 97.0394 103.585 97.1138 103.659C97.213 103.734 97.1138 103.659 97.089 103.634C97.1138 103.659 97.1634 103.709 97.1882 103.734C97.2378 103.808 97.3121 103.882 97.3617 103.957C97.4361 104.056 97.4857 104.13 97.5601 104.23C97.4857 104.13 97.6345 104.354 97.6593 104.378C98.0313 105.023 98.3785 105.817 98.2793 106.61C98.2297 106.957 98.0561 107.28 97.7337 107.453C97.6593 107.503 97.5601 107.528 97.5105 107.553C97.4361 107.528 97.4361 107.553 97.5105 107.553C97.6841 107.652 97.8825 107.726 98.0313 107.9C98.0809 107.949 98.1057 107.974 98.1305 108.024C98.0809 107.925 98.1057 107.974 98.1305 108.024C97.9569 107.453 98.5521 106.908 99.1473 106.933C99.0481 106.933 99.3457 106.982 99.2713 106.933C99.1721 106.908 99.3209 106.957 99.3209 106.957C99.1473 106.833 99.3953 107.057 99.2713 106.957C99.2465 106.933 99.1473 106.883 99.1225 106.858C99.1225 106.908 99.2217 106.957 99.2465 106.982C99.0977 106.833 99.2961 107.057 99.2961 107.057C99.3457 107.156 99.4449 107.404 99.4945 107.553C99.5689 107.801 99.6185 108.073 99.6433 108.321C99.6681 108.545 99.8912 108.793 100.04 108.941C100.238 109.14 100.511 109.338 100.784 109.437C101.131 109.561 101.627 109.611 101.553 109.09L101.578 109.041Z" fill="#F4A399"/>
<path d="M117.622 102.37C118.267 104.032 119.184 105.247 120.127 106.66C119.631 106.884 118.986 107.032 118.465 107.181C118.143 107.305 117.771 107.305 117.548 107.578C117.449 106.784 118.366 106.189 118.961 105.792L118.788 106.784C117.548 105.743 116.804 103.833 117.647 102.37H117.622Z" fill="#E29290"/>
<path d="M114.621 120.498C114.621 120.498 108.496 120.82 105.173 117.919" stroke="#F2C09E" stroke-width="0.31" stroke-miterlimit="10"/>
<path d="M129.7 93.8889H120.822C120.822 93.8889 121.243 88.4827 119.954 86.7468C119.755 90.665 119.755 93.0953 119.259 93.8889C117.126 93.9633 113.283 93.5913 113.283 93.5913C113.283 93.5913 113.853 87.5155 112.067 86.5484C112.117 88.2347 111.894 93.8889 111.894 93.8889L100.412 93.7649C100.412 93.7649 96.2953 80.0758 107.48 75.5872C115.787 72.2394 130.741 74.2977 129.7 93.8889Z" fill="#221D1E"/>
<path d="M96.5183 251.362C100.536 242.385 110.232 238.714 118.391 234.622C120.945 233.135 123.648 231.175 126.823 230.332C133.866 228.1 138.181 235.49 142.024 240.004C149.762 249.7 157.573 259.347 166.749 267.704L180.215 280.55C189.192 289.081 198.293 297.488 208.163 305.027C197.897 299.298 187.878 290.197 178.876 281.939C169.923 273.309 160.624 264.902 153.06 255.007C147.307 247.766 141.925 240.004 135.23 233.606C131.782 230.208 126.872 231.225 123.152 233.606C119.358 236.185 114.795 238.07 110.654 239.954C104.776 242.285 99.9406 246.65 96.4688 251.312L96.5183 251.362Z" fill="#FEFFFF"/>
<path d="M211.561 77.0657C210.969 75.661 210.821 74.1084 210.821 72.5928C210.821 71.0401 211.006 69.4506 211.672 68.0458C212.152 67.0477 213.002 66.2345 214.148 66.3084C216.514 66.4932 216.773 69.4136 216.366 71.188C217.66 70.5596 218.88 70.2269 220.248 70.6705C221.431 71.0401 222.096 72.0013 222.17 73.2212C222.281 75.0326 220.544 76.1785 219.028 76.733C217.254 77.3984 215.22 77.5093 213.335 77.3245C212.707 77.2506 212.115 77.1766 211.487 77.0288" fill="#E73149"/>
</g>
<defs>
<clipPath id="clip0_5251_24219">
<rect width="330" height="340.961" fill="white"/>
</clipPath>
</defs>
</svg>
