<svg width="330" height="349" viewBox="0 0 330 349" fill="none" xmlns="http://www.w3.org/2000/svg">
<path d="M263.886 21.6992H26.0635V276.189H263.886V21.6992Z" fill="white"/>
<path d="M250.371 35.835H40.6211V236.436H250.371V35.835Z" fill="#FFD351"/>
<path d="M84.2669 78.291C83.2501 78.291 82.4814 79.3822 82.5558 80.3246C82.655 81.4157 83.5725 82.0357 84.5893 82.0357C85.606 82.0357 86.3748 80.9445 86.3004 80.0022C86.2012 78.911 85.2836 78.291 84.2669 78.291Z" fill="#EB5C6A"/>
<path d="M51.3099 137.14C50.2931 137.14 49.5243 138.231 49.5987 139.173C49.6979 140.264 50.6155 140.884 51.6322 140.884C52.649 140.884 53.4178 139.793 53.3434 138.851C53.2442 137.76 52.3266 137.14 51.3099 137.14Z" fill="#EB5C6A"/>
<path d="M61.1546 213.497C60.1378 213.497 59.3691 214.588 59.4435 215.531C59.5426 216.622 60.4602 217.242 61.477 217.242C62.4937 217.242 63.2625 216.151 63.1881 215.208C63.0889 214.117 62.1713 213.497 61.1546 213.497Z" fill="#EB5C6A"/>
<path d="M60.1624 51.4336C59.1456 51.4336 58.3769 52.5248 58.4513 53.4671C58.5505 54.5583 59.468 55.1783 60.4848 55.1783C61.5015 55.1783 62.2703 54.0871 62.1959 53.1447C62.0967 52.0536 61.1792 51.4336 60.1624 51.4336Z" fill="#EB5C6A"/>
<path d="M57.9056 200.105C56.4672 200.105 56.6656 202.337 58.104 202.337C59.5423 202.337 59.3439 200.105 57.9056 200.105Z" fill="white"/>
<path d="M73.7024 198.841C72.2641 198.841 72.4625 201.073 73.9008 201.073C75.3392 201.073 75.1408 198.841 73.7024 198.841Z" fill="white"/>
<path d="M51.3587 155.765C49.9204 155.765 50.1188 157.997 51.5571 157.997C52.9954 157.997 52.797 155.765 51.3587 155.765Z" fill="white"/>
<path d="M74.348 76.9766C72.9096 76.9766 73.108 79.2085 74.5463 79.2085C75.9847 79.2085 75.7863 76.9766 74.348 76.9766Z" fill="white"/>
<path d="M78.9358 94.4355C77.4975 94.4355 77.6959 96.6675 79.1342 96.6675C80.5726 96.6675 80.3742 94.4355 78.9358 94.4355Z" fill="white"/>
<path d="M63.5853 149.242C62.1469 149.242 62.3453 151.474 63.7837 151.474C65.222 151.474 65.0236 149.242 63.5853 149.242Z" fill="white"/>
<path d="M77.6956 48.0117C76.2573 48.0117 76.4557 50.2437 77.894 50.2437C79.3323 50.2437 79.134 48.0117 77.6956 48.0117Z" fill="white"/>
<path d="M71.0491 65.0732C69.6108 65.0732 69.8092 67.3052 71.2475 67.3052C72.6859 67.3052 72.4875 65.0732 71.0491 65.0732Z" fill="white"/>
<path d="M64.6761 126.649C63.2377 126.649 63.4361 128.881 64.8745 128.881C66.3128 128.881 66.1144 126.649 64.6761 126.649Z" fill="#1CB1A1"/>
<path d="M59.9896 185.548C58.5512 185.548 58.7496 187.78 60.1879 187.78C61.6263 187.78 61.4279 185.548 59.9896 185.548Z" fill="#1CB1A1"/>
<path d="M100.139 90.6914C98.7006 90.6914 98.899 92.9233 100.337 92.9233C101.776 92.9233 101.577 90.6914 100.139 90.6914Z" fill="#1CB1A1"/>
<path d="M111.348 65.7432C109.91 65.7432 110.108 67.9751 111.546 67.9751C112.985 67.9751 112.786 65.7432 111.348 65.7432Z" fill="#1CB1A1"/>
<path d="M86.598 54.0381C85.1596 54.0381 85.358 56.27 86.7963 56.27C88.2347 56.27 88.0363 54.0381 86.598 54.0381Z" fill="#1CB1A1"/>
<path d="M95.1536 51.7559C93.7153 51.7559 93.9137 53.9878 95.352 53.9878C96.7904 53.9878 96.592 51.7559 95.1536 51.7559Z" fill="#1CB1A1"/>
<path d="M202.063 192.914C203.08 192.914 203.848 191.822 203.774 190.88C203.675 189.789 202.757 189.169 201.741 189.169C200.724 189.169 199.955 190.26 200.029 191.202C200.129 192.294 201.046 192.914 202.063 192.914Z" fill="#EB5C6A"/>
<path d="M235.02 134.065C236.037 134.065 236.805 132.974 236.731 132.031C236.632 130.94 235.714 130.32 234.698 130.32C233.681 130.32 232.912 131.411 232.986 132.354C233.086 133.445 234.003 134.065 235.02 134.065Z" fill="#EB5C6A"/>
<path d="M225.15 57.733C226.167 57.733 226.935 56.6418 226.861 55.6994C226.762 54.6083 225.844 53.9883 224.827 53.9883C223.811 53.9883 223.042 55.0794 223.116 56.0218C223.215 57.113 224.133 57.733 225.15 57.733Z" fill="#EB5C6A"/>
<path d="M226.167 219.771C227.184 219.771 227.953 218.68 227.879 217.738C227.779 216.646 226.862 216.026 225.845 216.026C224.828 216.026 224.059 217.118 224.134 218.06C224.233 219.151 225.151 219.771 226.167 219.771Z" fill="#EB5C6A"/>
<path d="M228.423 71.1245C229.862 71.1245 229.663 68.8926 228.225 68.8926C226.787 68.8926 226.985 71.1245 228.423 71.1245Z" fill="white"/>
<path d="M212.626 72.3647C214.065 72.3647 213.866 70.1328 212.428 70.1328C210.99 70.1328 211.188 72.3647 212.626 72.3647Z" fill="white"/>
<path d="M234.97 115.441C236.409 115.441 236.21 113.209 234.772 113.209C233.333 113.209 233.532 115.441 234.97 115.441Z" fill="white"/>
<path d="M211.982 194.252C213.42 194.252 213.222 192.021 211.784 192.021C210.345 192.021 210.544 194.252 211.982 194.252Z" fill="white"/>
<path d="M207.394 176.794C208.832 176.794 208.634 174.562 207.196 174.562C205.757 174.562 205.956 176.794 207.394 176.794Z" fill="white"/>
<path d="M222.745 121.962C224.183 121.962 223.985 119.73 222.546 119.73C221.108 119.73 221.306 121.962 222.745 121.962Z" fill="white"/>
<path d="M208.634 223.194C210.073 223.194 209.874 220.962 208.436 220.962C206.998 220.962 207.196 223.194 208.634 223.194Z" fill="white"/>
<path d="M215.281 206.157C216.719 206.157 216.521 203.925 215.082 203.925C213.644 203.925 213.842 206.157 215.281 206.157Z" fill="white"/>
<path d="M221.654 144.555C223.092 144.555 222.894 142.323 221.455 142.323C220.017 142.323 220.215 144.555 221.654 144.555Z" fill="#1CB1A1"/>
<path d="M226.34 85.6567C227.779 85.6567 227.58 83.4248 226.142 83.4248C224.704 83.4248 224.902 85.6567 226.34 85.6567Z" fill="#1CB1A1"/>
<path d="M186.191 180.539C187.629 180.539 187.431 178.307 185.992 178.307C184.554 178.307 184.753 180.539 186.191 180.539Z" fill="#1CB1A1"/>
<path d="M174.982 205.487C176.42 205.487 176.222 203.255 174.784 203.255C173.345 203.255 173.544 205.487 174.982 205.487Z" fill="#1CB1A1"/>
<path d="M199.731 217.167C201.169 217.167 200.971 214.936 199.533 214.936C198.094 214.936 198.293 217.167 199.731 217.167Z" fill="#1CB1A1"/>
<path d="M191.175 219.449C192.614 219.449 192.415 217.217 190.977 217.217C189.539 217.217 189.737 219.449 191.175 219.449Z" fill="#1CB1A1"/>
<path d="M165.261 69.9839C166.278 69.9839 167.047 68.8928 166.972 67.9504C166.873 66.8592 165.956 66.2393 164.939 66.2393C163.922 66.2393 163.153 67.3304 163.228 68.2728C163.327 69.364 164.244 69.9839 165.261 69.9839Z" fill="#EB5C6A"/>
<path d="M189.366 96.8658C190.382 96.8658 191.151 95.7746 191.077 94.8322C190.978 93.7411 190.06 93.1211 189.043 93.1211C188.027 93.1211 187.258 94.2123 187.332 95.1546C187.431 96.2458 188.349 96.8658 189.366 96.8658Z" fill="#EB5C6A"/>
<path d="M175.18 71.3228C176.618 71.3228 176.42 69.0908 174.982 69.0908C173.543 69.0908 173.742 71.3228 175.18 71.3228Z" fill="white"/>
<path d="M170.592 53.8638C172.031 53.8638 171.832 51.6318 170.394 51.6318C168.956 51.6318 169.154 53.8638 170.592 53.8638Z" fill="white"/>
<path d="M171.832 100.263C173.271 100.263 173.072 98.0312 171.634 98.0312C170.196 98.0312 170.394 100.263 171.832 100.263Z" fill="white"/>
<path d="M178.479 83.2261C179.917 83.2261 179.719 80.9941 178.281 80.9941C176.842 80.9941 177.041 83.2261 178.479 83.2261Z" fill="white"/>
<path d="M149.389 57.6089C150.827 57.6089 150.629 55.377 149.191 55.377C147.752 55.377 147.951 57.6089 149.389 57.6089Z" fill="#1CB1A1"/>
<path d="M138.18 82.5571C139.618 82.5571 139.42 80.3252 137.982 80.3252C136.543 80.3252 136.742 82.5571 138.18 82.5571Z" fill="#1CB1A1"/>
<path d="M162.93 94.2368C164.368 94.2368 164.17 92.0049 162.732 92.0049C161.293 92.0049 161.492 94.2368 162.93 94.2368Z" fill="#1CB1A1"/>
<path d="M154.374 96.519C155.813 96.519 155.614 94.2871 154.176 94.2871C152.738 94.2871 152.936 96.519 154.374 96.519Z" fill="#1CB1A1"/>
<path d="M246.725 251.886C248.734 251.886 250.37 253.522 250.37 255.531C250.37 256.548 249.949 257.441 249.304 258.11C248.659 258.78 247.717 259.177 246.725 259.177H72.7354V251.886H246.725Z" fill="#EB5C6A"/>
<path d="M207.394 173.123C207.518 173.198 207.642 173.247 207.766 173.322C221.455 181.183 226.514 195.542 226.043 205.04C225.696 212.48 214.759 226.119 205.46 236.436H181.206L163.475 212.331L131.261 234.774L105.197 170.594C107.008 172.131 109.364 172.999 111.744 173.024C113.679 173.024 115.613 172.503 117.498 172.9C120.225 173.471 122.259 175.876 124.912 176.744C126.822 177.389 128.979 177.166 130.74 176.199C132.476 175.207 133.766 173.471 134.212 171.511C134.758 169.032 133.989 166.353 134.634 163.898C134.708 163.6 134.807 163.303 134.931 163.03H134.981L153.902 188.003L175.106 162.088C175.106 162.088 181.107 156.062 184.802 158.69C188.497 161.319 184.232 163.501 184.232 163.898C184.232 164.295 189.737 162.361 190.878 164.592C192.018 166.824 189.018 167.841 189.018 167.841C196.334 168.412 202.409 170.346 207.369 173.123H207.394Z" fill="#90CECA"/>
<path d="M170.22 61.5769L170.171 61.8001C171.535 63.5112 171.435 66.0904 170.319 67.9751C169.203 69.8598 167.244 71.0998 165.186 71.8438C163.128 72.5878 160.945 72.9102 158.788 73.3317C154.994 74.1005 151.051 75.3653 148.472 78.2916C146.959 80.0027 146.066 82.1355 144.95 84.1442C143.735 86.3762 142.247 88.4841 140.313 90.1208C138.378 91.7576 136.543 93.2456 134.014 93.3696C134.014 93.3696 129.401 87.8889 122.829 91.9808C116.282 96.0727 125.111 106.96 125.111 106.96C122.011 109.043 119.606 111.622 119.606 111.622C119.606 111.622 114.77 112.391 107.628 113.606C102.792 114.424 96.8649 115.441 90.6403 116.606L90.5907 116.334C89.5244 113.556 90.8635 110.431 92.6242 108.026C94.385 105.645 96.6417 103.537 97.832 100.834C99.072 98.007 99.072 94.8079 99.7168 91.8072C100.386 88.7321 101.825 85.7562 104.131 83.5986C106.933 80.9947 110.728 79.8292 114.175 78.2172C117.622 76.6053 121.862 72.7118 122.755 68.9919C123.573 65.6688 123.896 62.0977 125.929 59.345C128.657 55.6747 134.386 54.6579 138.205 57.1626C138.453 51.6076 143.363 47.0941 148.744 45.7302C154.126 44.3662 159.829 45.5566 165.112 47.3173C170.394 49.0781 175.502 51.434 180.958 52.4756C186.538 53.5419 192.564 53.2691 197.499 56.0467C201.492 58.2786 204.368 62.4449 204.988 66.9831C205.832 72.9598 203.029 78.9612 203.674 84.9626C204.691 94.1879 213.618 101.454 213.47 110.729C213.346 117.598 208.187 123.674 208.386 130.544C208.535 136.024 212.056 140.736 214.362 145.721C216.644 150.631 217.809 156.236 216.669 161.543C215.578 166.602 212.155 171.314 207.369 173.198C202.409 170.421 196.358 168.487 189.018 167.916C189.018 167.916 192.043 166.875 190.878 164.667C189.737 162.46 184.232 164.345 184.232 163.973C184.232 163.601 188.497 161.419 184.802 158.765C181.082 156.136 175.106 162.163 175.106 162.163L173.965 156.756L171.857 146.713C186.067 143.266 198.119 115.54 194.846 84.2682C194.846 84.2682 190.283 64.7016 170.195 61.6513L170.22 61.5769Z" fill="#EB5C6A"/>
<path d="M177.189 286.68L205.262 348.529H70.876L81.4403 276.189H180.537L177.189 286.68Z" fill="#90CECA"/>
<path d="M171.882 146.638C170.766 146.911 169.65 147.035 168.534 146.985C152.935 146.489 137.362 130.89 137.362 130.89H137.312C136.022 129.055 135.006 127.071 134.733 124.815V124.715C137.461 124.443 139.469 122.93 139.99 119.185C140.089 118.466 140.139 117.747 140.164 117.028C141.627 119.731 144.504 121.566 147.777 121.566C152.563 121.566 156.432 117.697 156.432 112.911C156.432 108.125 152.539 104.256 147.777 104.256C143.735 104.256 140.362 107.009 139.395 110.729C138.353 107.406 136.246 104.876 132.997 104.33C130.467 103.909 127.541 105.273 125.086 106.934C125.086 106.934 116.258 96.0475 122.805 91.9557C129.351 87.8638 133.989 93.3444 133.989 93.3444C136.518 93.2204 138.353 91.7325 140.288 90.0957C142.222 88.459 143.71 86.351 144.925 84.1191C146.016 82.1103 146.934 80.0024 148.447 78.2665C151.026 75.3649 154.969 74.0754 158.763 73.3066C160.921 72.885 163.103 72.5626 165.161 71.8187C167.219 71.0747 169.179 69.8099 170.295 67.95C171.411 66.0652 171.51 63.4861 170.146 61.775L170.195 61.5518C190.283 64.6021 194.846 84.1687 194.846 84.1687C198.119 115.416 186.067 143.141 171.857 146.613L171.882 146.638Z" fill="#F9C19D"/>
<path d="M163.475 212.331L181.206 236.436H131.261V234.774L163.475 212.331Z" fill="#F9C19D"/>
<path d="M173.865 94.7578L179.396 115.788C177.164 119.036 172.08 116.73 172.08 116.73C169.947 109.067 173.865 94.7578 173.865 94.7578Z" fill="#F3934E"/>
<path d="M177.958 122.781C177.958 122.781 177.958 122.855 177.958 122.979C177.859 124.194 176.991 130.717 168.683 130.146C159.88 129.551 159.458 121.367 159.458 121.367L177.958 122.781Z" fill="white"/>
<path d="M173.99 156.681L175.13 162.088L153.927 188.003L135.006 163.055H134.956C136.32 159.657 140.015 157.673 142.421 154.822C145.049 151.697 146.091 147.332 145.223 143.364C145.223 143.364 155.539 156.657 173.99 156.681Z" fill="#F9C19D"/>
<path d="M171.882 146.638L173.99 156.682C155.539 156.682 145.223 143.365 145.223 143.365C145.074 142.72 144.901 142.075 144.653 141.455C143.115 137.512 139.742 134.412 137.337 130.94H137.387C137.387 130.94 152.985 146.514 168.559 147.01C169.675 147.06 170.791 146.911 171.907 146.663L171.882 146.638Z" fill="#F3934E"/>
<path d="M168.609 129.998C176.916 130.568 177.784 124.046 177.884 122.831C177.809 124.294 177.04 134.139 168.162 133.222C158.565 132.23 159.384 121.219 159.384 121.219C159.384 121.219 159.805 129.402 168.609 129.998Z" fill="#EB5C6A"/>
<path d="M147.803 104.256C152.589 104.256 156.457 108.149 156.457 112.911C156.457 117.672 152.564 121.566 147.803 121.566C144.504 121.566 141.652 119.731 140.189 117.027C140.288 114.82 140.04 112.638 139.445 110.728C140.412 107.009 143.785 104.256 147.827 104.256H147.803Z" fill="#F4A291"/>
<path d="M145.198 143.364C146.066 147.332 145.049 151.722 142.396 154.822C139.99 157.673 136.295 159.657 134.931 163.03C134.807 163.303 134.733 163.6 134.634 163.898C133.989 166.378 134.758 169.032 134.212 171.511C133.766 173.471 132.476 175.231 130.74 176.199C128.98 177.19 126.822 177.389 124.913 176.744C122.259 175.851 120.226 173.471 117.498 172.9C115.613 172.503 113.654 173.024 111.744 173.024C109.364 173.024 107.008 172.131 105.197 170.594L99.8656 157.45C99.8656 157.45 99.8656 145.919 93.8394 137.288C93.517 136.817 93.1947 136.346 92.9219 135.875C93.3187 136.247 97.2617 139.818 102.172 138.206C102.172 138.206 102.544 136.991 99.1216 132.428C103.263 133.395 104.131 131.709 104.057 130.915C103.908 129.7 98.4768 124.641 98.4768 124.641C102.097 124.12 105.52 123.624 108.545 123.178C116.183 122.037 121.416 121.169 121.416 121.169C125.781 123.004 130.939 125.062 134.758 124.715V124.814C135.031 127.096 136.047 129.055 137.337 130.94C139.742 134.412 143.115 137.512 144.653 141.455C144.901 142.075 145.074 142.72 145.223 143.364H145.198Z" fill="#EB5C6A"/>
<path d="M139.42 110.728C140.016 112.638 140.264 114.82 140.164 117.027C140.164 117.747 140.09 118.466 139.991 119.185C139.47 122.93 137.461 124.467 134.733 124.715C130.939 125.062 125.756 123.004 121.392 121.169C123.252 114.151 119.631 111.596 119.631 111.596C119.631 111.596 122.012 109.017 125.136 106.934C127.591 105.273 130.518 103.909 133.047 104.33C136.296 104.901 138.379 107.405 139.445 110.728H139.42Z" fill="#010101"/>
<path d="M88.1359 126.03C88.3839 126.6 88.6319 127.17 88.8799 127.741C90.0207 130.32 91.2358 133.122 92.8973 135.801H92.9221C93.2197 136.321 93.5173 136.793 93.8397 137.239C99.8659 145.869 99.8659 157.401 99.8659 157.401L105.198 170.544L131.261 234.725V236.386H95.1044C94.3853 233.088 93.6661 229.542 92.9717 225.847C89.4503 207.173 86.3752 184.853 84.8625 173.223C84.2177 168.288 83.8457 165.287 83.8457 165.287L58.7987 140.76C58.7987 140.76 57.1372 137.958 58.278 129.006C61.5514 128.857 65.3953 128.559 69.5615 128.138C69.5615 128.138 72.1654 130.072 72.959 131.808C72.959 131.808 76.9764 131.758 81.4154 133.519C80.6219 131.857 79.5555 129.526 78.6627 127.146C77.5468 124.145 76.6788 121.07 76.9764 119.111C77.1748 117.722 77.9684 116.903 79.6795 117.151C80.6962 117.3 81.589 117.598 82.3578 118.044C84.9617 119.507 86.524 122.459 88.1111 125.955L88.1359 126.03Z" fill="#F9C19D"/>
<path d="M119.605 111.597C119.605 111.597 123.251 114.151 121.366 121.169C121.366 121.169 116.158 122.012 108.495 123.178C111.124 118.144 107.603 113.581 107.603 113.581C114.769 112.365 119.58 111.597 119.58 111.597H119.605Z" fill="#DFF1F7"/>
<path d="M107.628 113.58C107.628 113.58 111.15 118.143 108.521 123.177C105.495 123.624 102.073 124.12 98.4525 124.641C95.1295 125.112 91.6576 125.583 88.1362 126.054C86.549 122.533 84.9867 119.581 82.3828 118.143C83.0772 117.994 83.7716 117.87 84.4659 117.746C84.4907 117.746 84.5155 117.746 84.5403 117.746C84.5899 117.746 84.6147 117.746 84.6643 117.746C84.7139 117.746 84.7883 117.746 84.8627 117.697C84.9371 117.697 85.0115 117.697 85.0859 117.647C85.1603 117.647 85.2099 117.622 85.2843 117.598C87.0698 117.25 88.8553 116.928 90.6161 116.606C96.8158 115.465 102.743 114.448 107.603 113.605L107.628 113.58Z" fill="#90CECA"/>
<path d="M104.032 130.89C104.131 131.684 103.238 133.37 99.0969 132.403C96.8154 131.857 93.5419 130.518 88.8797 127.765C88.6317 127.17 88.3837 126.6 88.1357 126.054C91.6572 125.583 95.1539 125.112 98.4521 124.641C98.4521 124.641 103.883 129.675 104.032 130.915V130.89Z" fill="#F9C19D"/>
<path d="M99.0965 132.403C102.519 136.967 102.147 138.182 102.147 138.182C97.2365 139.794 93.2935 136.223 92.8967 135.851H92.8719C91.2104 133.123 89.9952 130.345 88.8545 127.741C93.5167 130.494 96.7902 131.833 99.0717 132.379L99.0965 132.403Z" fill="#F9C19D"/>
<path d="M95.1045 236.436H46.4241L40.6211 223.888V210.124C44.1674 208.066 46.6473 205.387 46.6969 203.999C46.7713 201.32 42.4067 201.593 42.4067 201.593L42.3323 201.469C43.9442 200.576 45.2089 199.46 45.8785 198.146C49.2016 191.426 35.7109 193.831 35.7109 193.831C38.7364 192.541 41.9355 190.979 44.5394 189.243L77.0012 230.311L80.1259 217.539L92.9718 225.921C93.6661 229.616 94.3853 233.163 95.1045 236.461V236.436Z" fill="#F9C19D"/>
<path d="M92.972 225.896L80.1261 217.514L72.1904 212.331L84.8627 173.272C86.3754 184.903 89.4505 207.223 92.972 225.896Z" fill="#90CECA"/>
<path d="M87.3922 115.565C88.7065 116.631 86.5738 117.276 85.3091 117.573C85.2347 117.573 85.1603 117.598 85.1107 117.623C85.0363 117.623 84.9619 117.623 84.8875 117.673C84.8131 117.673 84.7635 117.673 84.6891 117.722C84.6395 117.722 84.5899 117.722 84.5651 117.722C84.5403 117.722 84.5155 117.722 84.4907 117.722C83.7963 117.846 83.1019 117.995 82.4076 118.119C81.614 117.673 80.7213 117.375 79.7293 117.226C78.0182 116.978 77.2246 117.797 77.0262 119.185C70.4545 120.5 64.2051 121.864 59.1709 123.178C59.1709 123.178 59.0717 118.813 60.8325 117.177C62.5932 115.565 72.364 111.448 74.5463 111.597C76.7286 111.745 85.6314 114.101 87.4418 115.54L87.3922 115.565Z" fill="#F9C19D"/>
<path d="M106.016 251.96C106.586 253.027 106.908 254.242 106.908 255.531C106.908 256.821 106.586 258.036 106.016 259.102C104.751 261.434 102.271 263.021 99.419 263.021C95.2776 263.021 91.9297 259.673 91.9297 255.531C91.9297 251.39 95.2776 248.042 99.419 248.042C102.271 248.042 104.726 249.629 106.016 251.96Z" fill="#90CECA"/>
<path d="M78.6627 127.22C79.5555 129.6 80.6219 131.932 81.4154 133.593C76.9764 131.832 72.959 131.882 72.959 131.882C72.1654 130.146 69.5615 128.212 69.5615 128.212C72.463 127.939 75.5381 127.592 78.6379 127.22H78.6627Z" fill="#F9C19D"/>
<path d="M78.1911 24.9971C80.299 24.9971 82.0102 26.7082 82.0102 28.8162C82.0102 30.9241 80.299 32.6352 78.1911 32.6352C76.0832 32.6352 74.3721 30.9241 74.3721 28.8162C74.3721 26.7082 76.0832 24.9971 78.1911 24.9971Z" fill="#FFD351"/>
<path d="M76.9762 119.186C76.6786 121.12 77.5466 124.22 78.6625 127.221C75.5378 127.592 72.4876 127.915 69.5861 128.212C65.4199 128.609 61.576 128.932 58.3025 129.08C52.3756 129.353 48.3582 129.105 47.7878 128.039C47.1182 126.799 51.83 125.063 59.1209 123.178C64.1551 121.889 70.4044 120.525 76.9762 119.186Z" fill="#90CECA"/>
<path d="M62.9147 24.9971C65.0227 24.9971 66.7338 26.7082 66.7338 28.8162C66.7338 30.9241 65.0227 32.6352 62.9147 32.6352C60.8068 32.6352 59.0957 30.9241 59.0957 28.8162C59.0957 26.7082 60.8068 24.9971 62.9147 24.9971Z" fill="#90CECA"/>
<path d="M53.6896 256.151L41.4141 264.112V248.19L53.6896 256.151Z" fill="#010101"/>
<path d="M47.0935 24.9971C49.2014 24.9971 50.9125 26.7082 50.9125 28.8162C50.9125 30.9241 49.2014 32.6352 47.0935 32.6352C44.9855 32.6352 43.2744 30.9241 43.2744 28.8162C43.2744 26.7082 44.9855 24.9971 47.0935 24.9971Z" fill="#EB5C6A"/>
<path d="M37.5956 180.787C37.5956 180.787 53.1198 178.927 48.0608 185.498C47.0688 186.788 45.5809 188.028 43.7953 189.194C41.1914 190.93 37.9924 192.492 34.9669 193.781C34.9669 193.781 48.4575 191.376 45.1345 198.096C44.4649 199.436 43.2002 200.527 41.5882 201.42L41.6626 201.544C41.6626 201.544 46.0272 201.271 45.9529 203.949C45.9033 205.363 43.4234 208.016 39.8771 210.075C39.8027 210.124 39.7531 210.149 39.6787 210.199C38.9347 210.62 38.166 210.992 37.3724 211.339C37.0252 211.488 36.7028 211.612 36.3556 211.761C36.1325 211.835 35.8845 211.91 35.6613 212.009C35.5373 212.058 35.4133 212.083 35.2645 212.133C34.9917 212.232 34.7437 212.306 34.4709 212.356C33.107 212.703 31.5446 212.951 29.9575 212.877C29.8831 212.877 29.8335 212.877 29.7591 212.877C29.6599 212.877 29.5607 212.877 29.4863 212.877C29.2879 212.877 29.0895 212.852 28.8912 212.827C28.8664 212.827 28.8168 212.827 28.792 212.827C28.5688 212.802 28.3456 212.753 28.1472 212.728L27.8 212.654C27.6512 212.629 27.5024 212.579 27.3536 212.554C27.2048 212.505 27.056 212.48 26.9072 212.43C26.7584 212.381 26.6344 212.356 26.4857 212.306C26.3121 212.257 26.1385 212.182 25.9649 212.108C25.7665 212.034 25.5433 211.934 25.3201 211.835C20.6083 209.554 20.4843 204.643 20.4843 204.643C15.6237 201.469 18.4012 195.964 18.4012 195.964C15.0037 192.616 18.2524 186.763 18.2524 186.763C18.2524 186.763 13.0446 179.869 20.0627 173.272C20.0627 173.272 20.9555 166.13 21.1539 157.872C21.2283 154.822 22.9394 154.152 24.8985 155.417C28.1968 157.525 28.1224 163.13 26.2873 173.892C26.2873 173.942 31.7926 172.578 33.1318 172.132C33.2062 172.132 33.2806 172.082 33.3798 172.057C35.6861 171.313 38.1164 170.52 39.9019 169.9C40.5467 169.677 41.117 169.453 41.5634 169.28C44.2913 168.164 50.7639 173.446 39.9019 179.596C39.2075 179.993 38.4388 180.39 37.5956 180.787Z" fill="#F9C19D"/>
<path d="M34.0986 172.057C36.7025 171.164 40.4224 169.899 40.6208 169.899C38.8352 170.519 36.4049 171.313 34.0986 172.057Z" fill="white"/>
<path d="M38.1162 211.389C38.9346 211.042 39.7033 210.645 40.4225 210.248C40.0753 210.446 39.257 210.918 38.1162 211.389Z" fill="white"/>
<path d="M36.4053 212.033C36.6533 211.959 36.8765 211.884 37.0996 211.785C36.8765 211.86 36.6285 211.959 36.4053 212.033Z" fill="#F9C19D"/>
<path d="M36.0088 212.157C36.1328 212.108 36.2816 212.083 36.4056 212.033C36.2816 212.083 36.1328 212.132 36.0088 212.157Z" fill="#F9C19D"/>
<path d="M31.5444 172.851C32.2884 172.628 33.0571 172.38 33.8507 172.132C32.5116 172.578 31.5196 172.901 31.5444 172.851Z" fill="#F9C19D"/>
<path d="M35.2146 212.405C33.7266 212.802 32.1891 213 30.7012 212.926C32.3131 212.976 33.8506 212.752 35.2146 212.405Z" fill="#F9C19D"/>
<path d="M28.5439 212.653L28.8911 212.728C28.8911 212.728 28.6679 212.678 28.5439 212.653Z" fill="white"/>
<path d="M27.6514 212.431C27.8002 212.48 27.949 212.53 28.0977 212.555C27.949 212.505 27.8002 212.48 27.6514 212.431Z" fill="white"/>
<path d="M27.2295 212.281C27.3535 212.331 27.5023 212.38 27.6511 212.405C27.5023 212.356 27.3783 212.331 27.2295 212.281Z" fill="white"/>
<path d="M26.709 212.083C26.8826 212.157 27.0562 212.207 27.2298 212.281C27.0562 212.232 26.8826 212.157 26.709 212.083Z" fill="#F9C19D"/>
<path d="M26.0635 211.811C26.2619 211.91 26.4851 212.009 26.7083 212.083C26.4851 212.009 26.2867 211.91 26.0635 211.811Z" fill="#F9C19D"/>
<path d="M78.6625 127.221C75.5378 127.592 72.4876 127.915 69.5861 128.212C65.4199 128.609 61.576 128.932 58.3025 129.08C52.3756 129.353 48.3582 129.105 47.7878 128.039C47.1182 126.799 51.83 125.063 59.1209 123.178C64.1551 121.889 70.4044 120.525 76.9762 119.186" stroke="#010101" stroke-width="0.25" stroke-linecap="round" stroke-linejoin="round"/>
<path d="M88.111 126.029C91.6324 125.558 95.1291 125.087 98.4274 124.616C102.048 124.095 105.47 123.599 108.496 123.153C116.134 122.012 121.366 121.144 121.366 121.144C123.226 114.126 119.606 111.571 119.606 111.571C119.606 111.571 114.77 112.34 107.628 113.555C102.792 114.374 96.865 115.39 90.6405 116.556C88.8798 116.878 87.0942 117.201 85.3087 117.548C85.2343 117.548 85.1599 117.573 85.1103 117.598C85.0359 117.598 84.9615 117.598 84.8871 117.647C84.8127 117.647 84.7631 117.647 84.6887 117.697C84.6391 117.697 84.5895 117.697 84.5647 117.697C84.5399 117.697 84.5151 117.697 84.4903 117.697C83.796 117.821 83.1016 117.969 82.4072 118.093" stroke="#010101" stroke-width="0.25" stroke-linecap="round" stroke-linejoin="round"/>
<path d="M69.5859 130.667C69.5859 130.667 72.1898 132.601 72.9834 134.337C72.9834 134.337 77.0008 134.288 81.4399 136.048" stroke="#CBBBA0" stroke-width="0.5" stroke-linecap="round" stroke-linejoin="round"/>
<path d="M119.605 111.596C119.605 111.596 121.986 109.017 125.111 106.934C127.566 105.273 130.492 103.909 133.022 104.33C136.27 104.901 138.353 107.405 139.42 110.728C140.015 112.638 140.263 114.82 140.164 117.027C140.164 117.747 140.089 118.466 139.99 119.185C139.469 122.93 137.461 124.467 134.733 124.715C130.939 125.062 125.756 123.004 121.391 121.169" stroke="#010101" stroke-linecap="round" stroke-linejoin="round"/>
<path d="M171.882 146.613V146.638L173.99 156.682L175.106 162.088" stroke="#010101" stroke-linecap="round" stroke-linejoin="round"/>
<path d="M105.917 251.96C106.487 253.027 106.81 254.242 106.81 255.531C106.81 256.821 106.487 258.036 105.917 259.102C104.652 261.434 102.172 263.021 99.3203 263.021C95.1789 263.021 91.8311 259.673 91.8311 255.531C91.8311 251.39 95.1789 248.042 99.3203 248.042C102.172 248.042 104.627 249.629 105.917 251.96Z" stroke="#010101" stroke-width="0.25" stroke-linecap="round" stroke-linejoin="round"/>
<path d="M41.4141 248.19V264.112L53.6896 256.151L41.4141 248.19Z" stroke="#010101" stroke-linecap="round" stroke-linejoin="round"/>
<path d="M178.007 122.955C177.908 124.17 177.04 130.692 168.732 130.122C159.928 129.527 159.507 121.343 159.507 121.343L178.007 122.756" stroke="#010101" stroke-width="0.25" stroke-linecap="round" stroke-linejoin="round"/>
<path d="M164.864 93.617C162.136 96.9897 156.928 97.2377 154.002 93.9642C153.357 93.245 152.142 94.113 152.787 94.8322C154.498 96.7665 156.953 97.8825 159.557 97.8329C162.061 97.7833 164.442 96.5185 166.004 94.5842C166.6 93.8402 165.459 92.8731 164.864 93.617Z" fill="#010101"/>
<path d="M192.887 95.8495C190.159 99.2222 184.951 99.4701 182.025 96.1966C181.38 95.4775 180.165 96.3454 180.81 97.0646C182.521 98.999 184.976 100.115 187.58 100.065C190.085 100.016 192.466 98.751 194.028 96.8166C194.623 96.0726 193.482 95.1055 192.887 95.8495Z" fill="#010101" stroke="#010101" stroke-width="0.25" stroke-miterlimit="10"/>
<path d="M162.805 81.6143C158.317 80.3247 153.382 82.8294 151.77 87.1941C151.497 87.9381 151.696 88.8557 152.489 89.178C153.183 89.4756 154.2 89.2524 154.473 88.4589C154.622 88.0621 154.795 87.6653 154.994 87.2933C155.019 87.2437 155.068 87.1693 155.093 87.1197C155.093 87.1197 155.192 86.9709 155.217 86.9461C155.341 86.7725 155.465 86.5989 155.614 86.4501C155.763 86.2765 155.887 86.1277 156.035 85.9789C156.035 85.9789 156.11 85.9045 156.135 85.8797C156.184 85.8301 156.308 85.7309 156.308 85.7309C156.63 85.4582 156.978 85.2102 157.35 85.0118C157.35 85.0118 157.399 84.987 157.424 84.9622C157.498 84.9126 157.598 84.8878 157.672 84.8382C157.895 84.739 158.118 84.6398 158.342 84.5654C158.565 84.491 158.763 84.4166 158.986 84.367C159.036 84.367 159.185 84.3422 159.21 84.3422C159.309 84.3422 159.433 84.3174 159.532 84.2926C159.78 84.2678 160.003 84.243 160.251 84.243C160.276 84.243 160.474 84.243 160.524 84.243C160.574 84.243 160.698 84.243 160.722 84.243C161.243 84.2926 161.739 84.3918 162.235 84.5406C162.979 84.7638 163.872 84.0942 163.971 83.3502C164.095 82.4822 163.574 81.8375 162.781 81.6143H162.805Z" fill="#EB5C6A"/>
<path d="M181.851 82.9033C186.339 81.6138 191.274 84.1185 192.886 88.4832C193.159 89.2271 192.961 90.1447 192.167 90.4671C191.473 90.7647 190.456 90.5415 190.183 89.7479C190.034 89.3511 189.861 88.9544 189.662 88.5824C189.638 88.5328 189.588 88.4584 189.563 88.4088C189.563 88.4088 189.464 88.26 189.439 88.2352C189.315 88.0616 189.191 87.888 189.042 87.7392C188.894 87.5656 188.77 87.4168 188.621 87.268C188.621 87.268 188.546 87.1936 188.522 87.1688C188.472 87.1192 188.348 87.02 188.348 87.02C188.026 86.7472 187.679 86.4992 187.307 86.3008C187.307 86.3008 187.257 86.276 187.232 86.2512C187.158 86.2016 187.059 86.1768 186.984 86.1272C186.761 86.028 186.538 85.9288 186.315 85.8544C186.091 85.78 185.893 85.7057 185.67 85.6561C185.62 85.6561 185.471 85.6312 185.447 85.6312C185.347 85.6312 185.223 85.6064 185.124 85.5816C184.876 85.5568 184.653 85.5321 184.405 85.5321C184.38 85.5321 184.182 85.5321 184.132 85.5321C184.083 85.5321 183.959 85.5321 183.934 85.5321C183.413 85.5817 182.917 85.6809 182.421 85.8296C181.677 86.0528 180.784 85.3833 180.685 84.6393C180.561 83.7713 181.082 83.1265 181.876 82.9033H181.851Z" fill="#EB5C6A"/>
<path d="M88.0366 77.2993C88.0366 81.7879 86.3006 85.8798 83.4736 88.9301H18.2027C15.3756 85.8798 13.6396 81.7879 13.6396 77.2993C13.6396 67.8507 21.3025 60.1878 30.7509 60.1878C32.0901 60.1878 33.4044 60.3366 34.6692 60.6342C37.1491 54.2855 43.3488 49.7969 50.5653 49.7969C57.7818 49.7969 64.056 54.3351 66.5111 60.7581C67.9246 60.3862 69.4125 60.163 70.9501 60.163C80.3985 60.163 88.0614 67.8259 88.0614 77.2745L88.0366 77.2993Z" fill="white" stroke="#010101" stroke-width="0.25" stroke-miterlimit="10"/>
<path d="M68.421 91.2861L51.6073 110.506L34.248 91.2861H39.5302V80.4736H63.6844V91.2861H68.421Z" fill="#90CECA"/>
<path d="M63.6835 73.6533H39.5293V78.638H63.6835V73.6533Z" fill="#90CECA"/>
<path d="M258.405 119.458V124.244H252.18C250.469 122.26 252.18 119.458 252.18 119.458H258.405Z" fill="white"/>
<path d="M272.392 159.856H257.785V162.485H272.392V159.856Z" fill="white"/>
<path d="M267.408 150.234H261.282V155.591H267.408V150.234Z" fill="white"/>
<path d="M270.209 268.278H261.629V348.678H270.209V268.278Z" fill="white"/>
<path d="M277.699 238.47V243.058H275.071H257.067H255.107V238.47H261.63H270.235H277.699Z" fill="white"/>
<path d="M270.209 225.326H261.629V238.495H270.209V225.326Z" fill="white"/>
<path d="M306.64 201.172C310.607 201.172 313.806 204.396 313.806 208.339C313.806 212.282 310.607 215.506 306.64 215.506C302.672 215.506 299.473 212.307 299.473 208.339C299.473 204.371 302.672 201.172 306.64 201.172ZM310.285 207.992C310.285 206.231 308.871 204.817 307.111 204.817C305.35 204.817 303.936 206.231 303.936 207.992C303.936 209.752 305.35 211.166 307.111 211.166C308.871 211.166 310.285 209.752 310.285 207.992Z" fill="white"/>
<path d="M289.256 178.182C290.187 178.182 290.942 177.427 290.942 176.496C290.942 175.565 290.187 174.81 289.256 174.81C288.324 174.81 287.569 175.565 287.569 176.496C287.569 177.427 288.324 178.182 289.256 178.182Z" fill="white"/>
<path d="M283.452 169.454V182.746H247.915V170.471L256.793 162.436H276.682L283.477 169.429L283.452 169.454ZM279.435 181.01V170.471H252.404V181.01H279.435Z" fill="white"/>
<path d="M296 182.771V221.011H238.219V215.605V208.115V194.823V188.028V182.771H247.915H283.452H296Z" fill="#010101"/>
<path d="M321.668 177.562H318.593V187.805H321.668V177.562Z" fill="#90CECA"/>
<path d="M318.593 187.83V218.258L313.806 225.326H234.747L229.763 218.258V215.63H238.219V221.036H296.026V182.795H283.477V169.503L318.617 177.612V187.854L318.593 187.83ZM313.806 208.339C313.806 204.371 310.607 201.172 306.64 201.172C302.672 201.172 299.473 204.395 299.473 208.339C299.473 212.282 302.672 215.506 306.64 215.506C310.607 215.506 313.806 212.306 313.806 208.339ZM310.955 196.46C310.955 195.393 310.087 194.55 309.045 194.55C308.003 194.55 307.135 195.418 307.135 196.46C307.135 197.501 307.979 198.369 309.045 198.369C310.111 198.369 310.955 197.526 310.955 196.46ZM303.763 188.722C303.763 187.358 302.647 186.218 301.283 186.218C299.919 186.218 298.778 187.334 298.778 188.722C298.778 190.111 299.894 191.202 301.283 191.202C302.672 191.202 303.763 190.086 303.763 188.722ZM303.217 196.981C303.217 195.765 302.225 194.749 301.01 194.749C299.795 194.749 298.778 195.741 298.778 196.981C298.778 198.22 299.77 199.188 301.01 199.188C302.25 199.188 303.217 198.196 303.217 196.981ZM293.521 176.496C293.521 174.215 291.686 172.38 289.404 172.38C287.123 172.38 285.288 174.215 285.288 176.496C285.288 178.778 287.123 180.613 289.404 180.613C291.686 180.613 293.521 178.778 293.521 176.496Z" fill="white"/>
<path d="M309.02 194.55C310.086 194.55 310.929 195.418 310.929 196.459C310.929 197.501 310.061 198.369 309.02 198.369C307.978 198.369 307.11 197.526 307.11 196.459C307.11 195.393 307.954 194.55 309.02 194.55Z" fill="#EB5C6A"/>
<path d="M307.111 211.141C308.864 211.141 310.285 209.719 310.285 207.966C310.285 206.213 308.864 204.792 307.111 204.792C305.358 204.792 303.937 206.213 303.937 207.966C303.937 209.719 305.358 211.141 307.111 211.141Z" fill="#90CECA"/>
<path d="M301.283 186.218C302.647 186.218 303.763 187.334 303.763 188.723C303.763 190.111 302.647 191.202 301.283 191.202C299.919 191.202 298.778 190.086 298.778 188.723C298.778 187.359 299.894 186.218 301.283 186.218Z" fill="#EB5C6A"/>
<path d="M300.985 194.749C302.2 194.749 303.192 195.741 303.192 196.981C303.192 198.221 302.2 199.188 300.985 199.188C299.77 199.188 298.753 198.196 298.753 196.981C298.753 195.766 299.745 194.749 300.985 194.749Z" fill="#90CECA"/>
<path d="M289.379 172.38C291.661 172.38 293.496 174.215 293.496 176.497C293.496 178.778 291.661 180.613 289.379 180.613C287.098 180.613 285.263 178.778 285.263 176.497C285.263 174.215 287.098 172.38 289.379 172.38ZM290.942 176.497C290.942 175.554 290.198 174.81 289.255 174.81C288.313 174.81 287.569 175.579 287.569 176.497C287.569 177.414 288.338 178.183 289.255 178.183C290.173 178.183 290.942 177.439 290.942 176.497Z" fill="#EB5C6A"/>
<path d="M279.46 170.495H252.429V181.035H279.46V170.495Z" fill="#90CECA"/>
<path d="M276.434 155.591V159.856H272.392H257.785H252.181V155.591H261.282H267.407H276.434Z" fill="#010101"/>
<path d="M275.07 243.058V268.278H270.235H261.629H257.066V243.058H275.07Z" fill="#010101"/>
<path d="M270.681 116.655V150.233H267.407H261.282H258.405V124.244V119.458V116.655H270.681Z" fill="#010101"/>
<path d="M252.181 124.244H257.166C256.794 127.964 254.116 131.039 250.594 131.981C250.594 131.981 244.593 130.568 244.593 122.434C244.593 114.299 248.238 112.563 248.238 112.563C252.454 112.563 256.025 115.515 256.967 119.458H252.156C252.156 119.458 250.445 122.26 252.156 124.244H252.181Z" fill="#1CB1A1"/>
<path d="M250.594 131.982C249.85 132.205 249.056 132.304 248.238 132.304H231.995C227.06 132.304 223.018 128.262 223.018 123.327V121.516C223.018 116.581 227.06 112.539 231.995 112.539H248.238C248.238 112.539 244.593 114.25 244.593 122.409C244.593 130.568 250.594 131.957 250.594 131.957V131.982Z" fill="#90CECA"/>
<path d="M247.916 170.495V182.771H238.219V188.028H229.763V184.16V175.901L247.916 170.495Z" fill="white"/>
<path d="M238.219 194.823H229.763V208.116H238.219V194.823Z" fill="#EB5C6A"/>
<path d="M224.902 189.293V188.598H173.766V218.953H224.902V189.293ZM229.763 218.258V224.086H169.625V184.159H229.763V218.258Z" fill="#010101"/>
<path d="M224.902 204.47V218.928H210.246L224.729 204.47H224.902Z" fill="#90CECA"/>
<path d="M224.902 189.293V204.47H224.728L210.246 218.928H195.242L224.902 189.293Z" fill="#1CB1A1"/>
<path d="M224.902 188.573V189.292L195.242 218.928H182.917L213.271 188.573H224.902Z" fill="#90CECA"/>
<path d="M213.271 188.573L182.917 218.928H173.767V212.009L197.202 188.573H213.271Z" fill="#1CB1A1"/>
<path d="M197.202 188.573L173.767 212.009V188.573H197.202Z" fill="#90CECA"/>
<path d="M229.763 215.605V218.233V224.061H169.625V184.159H229.763V188.028" stroke="#010101" stroke-width="0.25" stroke-miterlimit="10"/>
<path d="M238.219 208.115V215.605H229.763V208.115" stroke="#010101" stroke-width="0.25" stroke-miterlimit="10"/>
<path d="M229.763 194.823V188.028H238.219V194.823" stroke="#010101" stroke-width="0.25" stroke-miterlimit="10"/>
<path d="M224.902 204.47V218.928H210.246H195.243H182.917H173.767V212.009V188.573H197.202H213.271H224.902V189.292V204.47Z" stroke="#010101" stroke-width="0.25" stroke-miterlimit="10"/>
<path d="M270.234 225.326H313.806L318.592 218.233V187.829V177.562L283.452 169.453V182.77" stroke="#010101" stroke-width="0.25" stroke-miterlimit="10"/>
<path d="M229.763 218.233L234.747 225.326H261.629" stroke="#010101" stroke-width="0.25" stroke-miterlimit="10"/>
<path d="M238.219 188.028V182.771H247.915H283.452H296V221.011H238.219V215.605" stroke="#010101" stroke-width="0.25" stroke-miterlimit="10"/>
<path d="M247.916 182.771V170.495L229.763 175.901V184.16" stroke="#010101" stroke-width="0.25" stroke-miterlimit="10"/>
<path d="M272.392 162.46H276.657L283.452 169.453" stroke="#010101" stroke-width="0.25" stroke-miterlimit="10"/>
<path d="M247.915 170.495L256.793 162.46H257.785" stroke="#010101" stroke-width="0.25" stroke-miterlimit="10"/>
<path d="M272.392 159.856V162.46H257.785V159.856" stroke="#010101" stroke-width="0.25" stroke-miterlimit="10"/>
<path d="M267.407 155.591H276.434V159.856H272.392H257.785H252.181V155.591H261.282" stroke="#010101" stroke-width="0.25" stroke-miterlimit="10"/>
<path d="M267.408 150.234V155.591H261.282V150.234" stroke="#010101" stroke-width="0.25" stroke-miterlimit="10"/>
<path d="M258.405 119.458V116.655H270.681V150.233H267.407H261.282H258.405V124.244V119.458Z" stroke="#010101" stroke-width="0.25" stroke-miterlimit="10"/>
<path d="M257.166 124.244C256.794 127.964 254.115 131.039 250.594 131.982C249.85 132.18 249.056 132.304 248.238 132.304H231.995C227.06 132.304 223.018 128.262 223.018 123.327V121.516C223.018 116.581 227.06 112.539 231.995 112.539H248.238C252.454 112.539 256.025 115.49 256.967 119.433" stroke="#010101" stroke-width="0.25" stroke-miterlimit="10"/>
<path d="M258.405 119.458H252.18C252.18 119.458 250.469 122.26 252.18 124.244H258.405" stroke="#010101" stroke-width="0.25" stroke-miterlimit="10"/>
<path d="M261.629 238.47V225.326H270.234V238.47" stroke="#010101" stroke-width="0.25" stroke-miterlimit="10"/>
<path d="M257.067 243.058H255.107V238.47H261.63H270.235H277.699V243.058H275.071" stroke="#010101" stroke-width="0.25" stroke-miterlimit="10"/>
<path d="M261.629 268.278H257.066V243.058H275.07V268.278H270.235" stroke="#010101" stroke-width="0.25" stroke-miterlimit="10"/>
<path d="M270.209 268.278H261.629V348.678H270.209V268.278Z" stroke="#010101" stroke-width="0.25" stroke-miterlimit="10"/>
<path d="M306.64 215.506C310.598 215.506 313.806 212.297 313.806 208.339C313.806 204.381 310.598 201.172 306.64 201.172C302.681 201.172 299.473 204.381 299.473 208.339C299.473 212.297 302.681 215.506 306.64 215.506Z" stroke="#010101" stroke-width="0.25" stroke-miterlimit="10"/>
<path d="M293.52 176.497C293.52 178.778 291.685 180.613 289.404 180.613C287.122 180.613 285.287 178.778 285.287 176.497C285.287 174.215 287.122 172.38 289.404 172.38C291.685 172.38 293.52 174.215 293.52 176.497Z" stroke="#010101" stroke-width="0.25" stroke-miterlimit="10"/>
<path d="M102.891 289.332H44.3659C39.4079 289.332 35.3887 293.351 35.3887 298.309V303.641C35.3887 308.599 39.4079 312.619 44.3659 312.619H102.891C107.849 312.619 111.869 308.599 111.869 303.641V298.309C111.869 293.351 107.849 289.332 102.891 289.332Z" fill="white" stroke="#010101" stroke-width="0.5" stroke-linecap="round" stroke-linejoin="round"/>
<path d="M65.0726 298.087V298.136C64.8742 304.212 55.3018 309.197 55.3018 309.197C44.539 302.526 45.8534 298.186 45.8534 298.186C45.9526 295.334 48.4573 293.102 51.4331 293.176C52.9707 293.226 54.3346 293.871 55.3018 294.863C56.3185 293.573 57.9553 292.73 59.8152 292.804C62.8159 292.879 65.1718 295.259 65.0726 298.111V298.087Z" fill="#EB5C6A"/>
<path d="M74.8222 280.255V288.982H73.7654V281.363H73.7142L71.5835 282.778V281.704L73.7654 280.255H74.8222ZM80.1787 289.102C79.5367 289.102 78.9898 288.927 78.5381 288.578C78.0864 288.225 77.7412 287.715 77.5026 287.048C77.2639 286.377 77.1446 285.568 77.1446 284.619C77.1446 283.676 77.2639 282.87 77.5026 282.203C77.7441 281.532 78.0906 281.021 78.5423 280.669C78.9969 280.313 79.5423 280.136 80.1787 280.136C80.8151 280.136 81.3591 280.313 81.8108 280.669C82.2654 281.021 82.6119 281.532 82.8506 282.203C83.0921 282.87 83.2128 283.676 83.2128 284.619C83.2128 285.568 83.0935 286.377 82.8548 287.048C82.6162 287.715 82.271 288.225 81.8193 288.578C81.3676 288.927 80.8208 289.102 80.1787 289.102ZM80.1787 288.164C80.8151 288.164 81.3094 287.857 81.6617 287.244C82.0139 286.63 82.1901 285.755 82.1901 284.619C82.1901 283.863 82.1091 283.22 81.9472 282.688C81.7881 282.157 81.558 281.752 81.2568 281.474C80.9585 281.195 80.5992 281.056 80.1787 281.056C79.548 281.056 79.0551 281.367 78.7 281.99C78.3449 282.609 78.1673 283.485 78.1673 284.619C78.1673 285.374 78.2469 286.017 78.406 286.545C78.5651 287.073 78.7938 287.475 79.0921 287.751C79.3932 288.026 79.7554 288.164 80.1787 288.164ZM84.9855 288.982V280.255H86.0423V284.585H86.1446L90.0651 280.255H91.4458L87.781 284.193L91.4458 288.982H90.1673L87.1333 284.926L86.0423 286.153V288.982H84.9855Z" fill="#010101"/>
</svg>
