<svg width="199" height="85" viewBox="0 0 199 85" fill="none" xmlns="http://www.w3.org/2000/svg">
<path d="M26.8259 51.9839H28.2986C28.4199 51.9783 28.5394 52.0153 28.6364 52.0884C28.7333 52.1616 28.8017 52.2664 28.8296 52.3846L32.396 63.4045H30.9334L29.8314 59.818H25.2832L24.1912 63.4045H22.7285L26.295 52.3846C26.3229 52.2664 26.3912 52.1616 26.4882 52.0884C26.5851 52.0153 26.7046 51.9783 26.8259 51.9839ZM27.3369 53.0959L27.0463 54.0977L25.6538 58.6259H29.4507L28.0482 54.0977C27.978 53.8673 27.8879 53.5667 27.7777 53.176L27.3369 53.0959Z" fill="#3D3B3A"/>
<path d="M37.8773 51.8336C38.4983 51.7616 39.1275 51.8386 39.7128 52.0581C40.2982 52.2776 40.8228 52.6333 41.2434 53.0959C41.8845 53.9474 42.2452 55.4802 42.2452 57.6842C42.2452 59.8881 41.9246 61.4109 41.2434 62.2624C40.8248 62.7286 40.301 63.0881 39.7156 63.3111C39.1301 63.5341 38.4999 63.6142 37.8773 63.5447C36.6685 63.5447 35.3561 63.4946 33.9402 63.3945V51.9839C35.3561 51.8837 36.6685 51.8336 37.8773 51.8336ZM37.8773 53.0959H35.3527V62.2223H37.8773C38.3038 62.27 38.7352 62.2021 39.1265 62.0259C39.5177 61.8496 39.8544 61.5715 40.1013 61.2205C40.6154 60.1024 40.8328 58.8707 40.7325 57.6441C40.8104 56.4254 40.5831 55.2064 40.0713 54.0977C39.8269 53.7515 39.4951 53.4763 39.1096 53.3003C38.7242 53.1243 38.2989 53.0538 37.8773 53.0959Z" fill="#3D3B3A"/>
<path d="M52.6958 51.9839L49.3297 63.0038C49.3061 63.1242 49.2382 63.2314 49.1394 63.3043C49.0391 63.3823 48.9157 63.4246 48.7887 63.4245H47.3662C47.2389 63.4261 47.115 63.3837 47.0155 63.3043C46.92 63.2284 46.8529 63.1225 46.8252 63.0038L43.4691 51.9839H44.9318L47.5465 61.1103L47.8671 62.3426H48.3079C48.3079 62.1923 48.4481 61.7715 48.6284 61.0903L51.2331 52.074L52.6958 51.9839Z" fill="#3D3B3A"/>
<path d="M56.3894 51.9738C58.5734 51.9738 60.1562 51.9738 61.148 52.074L61.108 53.2161H56.6299C56.4984 53.21 56.3671 53.2299 56.2433 53.2746C56.1196 53.3193 56.0058 53.3879 55.9086 53.4766C55.7271 53.7138 55.6413 54.0106 55.6681 54.3081V56.7925H60.4568V57.9647H55.6681V61.1103C55.6681 61.8517 55.9887 62.2324 56.6699 62.2324H61.108V63.3344C60.1062 63.4045 58.5333 63.4345 56.3494 63.4345C55.7824 63.4661 55.2255 63.2757 54.7966 62.9036C54.6031 62.7163 54.452 62.4898 54.3535 62.2392C54.255 61.9886 54.2114 61.7198 54.2255 61.451V53.9574C54.2114 53.6885 54.255 53.4198 54.3535 53.1692C54.452 52.9186 54.6031 52.692 54.7966 52.5048C55.2378 52.1265 55.8095 51.9359 56.3894 51.9738Z" fill="#3D3B3A"/>
<path d="M67.1217 51.8336C68.1012 51.7414 69.0823 51.9929 69.8967 52.5449C70.2048 52.897 70.4353 53.31 70.5734 53.757C70.7115 54.204 70.754 54.6751 70.6981 55.1396C70.7485 55.8761 70.5812 56.6111 70.2173 57.2534C70.0315 57.4967 69.7961 57.6975 69.5266 57.8426C69.2571 57.9877 68.9598 58.0737 68.6545 58.0949V58.1751C69.0086 58.2993 69.3228 58.5164 69.5642 58.8037C69.8057 59.0909 69.9655 59.4378 70.0269 59.808L71.1289 63.4245H69.6262L68.6244 59.8381C68.5662 59.4941 68.3844 59.1833 68.1133 58.9638C67.8422 58.7443 67.5003 58.6313 67.1517 58.6459H64.7374V63.4346H63.3449V51.9839C64.3266 51.8837 65.5856 51.8336 67.1217 51.8336ZM67.1217 53.0959C65.9496 53.0959 65.1181 53.0959 64.7374 53.0959V57.3636H67.1217C67.7304 57.4319 68.3425 57.2673 68.8348 56.9028C69.2114 56.4161 69.3806 55.8004 69.3056 55.1897C69.3431 54.8919 69.3208 54.5897 69.24 54.3007C69.1591 54.0117 69.0213 53.7417 68.8348 53.5066C68.3331 53.1651 67.7237 53.019 67.1217 53.0959Z" fill="#3D3B3A"/>
<path d="M80.7931 53.2762H77.2166V63.4245H75.8041V53.2762H72.2477V51.9839H80.7931V53.2762Z" fill="#3D3B3A"/>
<path d="M83.9892 63.4245H82.5866V51.9839H83.9892V63.4245Z" fill="#3D3B3A"/>
<path d="M89.8609 51.7935C90.9706 51.7725 92.0792 51.8733 93.1669 52.0941L93.0667 53.0959C91.8245 53.0959 90.7826 53.0157 89.9411 53.0157C89.4736 53.0157 89.1396 53.0157 88.9393 53.0157C88.7106 53.0429 88.4894 53.1144 88.2881 53.2261C88.1849 53.2794 88.0935 53.353 88.0195 53.4426C87.9454 53.5321 87.8903 53.6357 87.8573 53.747C87.7782 54.0748 87.7445 54.4119 87.7571 54.7488C87.7153 55.2053 87.8244 55.6628 88.0677 56.0512C88.3611 56.3519 88.7444 56.5488 89.1597 56.6122L91.3937 57.2033C92.089 57.3283 92.7115 57.7111 93.1368 58.2752C93.5053 58.9273 93.6792 59.6713 93.6377 60.4191C93.6456 60.9948 93.554 61.5675 93.3672 62.1121C93.2572 62.5014 93.0121 62.8388 92.676 63.0639C92.3345 63.2919 91.9488 63.4455 91.544 63.5147C90.9867 63.5953 90.4239 63.6322 89.8609 63.6249C88.7121 63.6278 87.5654 63.5272 86.4347 63.3243L86.5249 62.2424C88.4083 62.3025 89.5303 62.3225 89.911 62.3225C90.5277 62.3765 91.1469 62.2512 91.6942 61.9619C91.8768 61.7625 92.0136 61.5255 92.095 61.2677C92.1763 61.0098 92.2002 60.7373 92.1651 60.4692C92.2099 60.0094 92.1007 59.5477 91.8545 59.1568C91.5636 58.8546 91.1851 58.6514 90.7726 58.5758L88.4784 57.9947C87.8045 57.8572 87.2072 57.4709 86.8054 56.9128C86.431 56.2737 86.2533 55.5385 86.2945 54.7989C86.2846 54.3501 86.3352 53.9019 86.4448 53.4665C86.5147 53.1477 86.6512 52.8473 86.8455 52.5849C87.034 52.3512 87.2837 52.1743 87.5668 52.074C87.8908 51.959 88.2269 51.8817 88.5686 51.8436C88.8792 51.8135 89.33 51.7935 89.8609 51.7935Z" fill="#3D3B3A"/>
<path d="M97.1749 63.4245H95.7823V51.9839H97.1749V63.4245Z" fill="#3D3B3A"/>
<path d="M108.506 51.9839V62.8535C108.506 63.2342 108.326 63.4245 107.955 63.4245H106.583C106.442 63.4197 106.306 63.3733 106.192 63.2913C106.078 63.2092 105.991 63.0953 105.941 62.9637L102.185 54.8591C101.946 54.3673 101.735 53.8623 101.554 53.3463H101.293C101.346 53.8488 101.369 54.3539 101.363 54.8591V63.4245H99.9807V52.5649C99.9674 52.4874 99.9726 52.4079 99.9957 52.3327C100.019 52.2575 100.059 52.1889 100.114 52.1323C100.169 52.0757 100.236 52.0328 100.31 52.007C100.384 51.9812 100.464 51.9733 100.542 51.9839H101.884C102.021 51.9913 102.154 52.039 102.264 52.1209C102.374 52.2029 102.458 52.3155 102.505 52.4447L106.122 60.359C106.482 61.1304 106.733 61.6814 106.883 62.012H107.194C107.194 61.4209 107.194 60.8399 107.194 60.2688V51.9839H108.506Z" fill="#3D3B3A"/>
<path d="M115.507 51.7735C116.55 51.7588 117.59 51.8766 118.603 52.1241L118.452 53.2161C117.451 53.1259 116.529 53.0758 115.587 53.0758C115.081 53.0624 114.575 53.1197 114.085 53.2461C113.686 53.3587 113.334 53.5978 113.083 53.9274C112.776 54.3453 112.583 54.8353 112.522 55.3499C112.399 56.1487 112.346 56.9564 112.361 57.7643C112.281 58.9774 112.463 60.1935 112.892 61.3307C113.069 61.6608 113.339 61.9316 113.669 62.1097C113.998 62.2878 114.373 62.3652 114.746 62.3325C115.244 62.3719 115.744 62.2965 116.208 62.1121C116.68 61.8853 117.126 61.61 117.541 61.2907V56.8126H118.923V63.4245H117.921L117.761 62.2223C117.339 62.6722 116.828 63.0299 116.261 63.2729C115.694 63.516 115.082 63.6392 114.465 63.6349C113.93 63.6716 113.395 63.5567 112.922 63.3033C112.449 63.05 112.057 62.6684 111.79 62.2023C111.142 60.7851 110.857 59.2291 110.959 57.6741C110.915 56.472 111.067 55.2709 111.41 54.1177C111.646 53.3536 112.161 52.7064 112.852 52.3044C113.683 51.9212 114.593 51.7393 115.507 51.7735Z" fill="#3D3B3A"/>
<path d="M28.5406 25.8567L37.4266 39.311V25.7365C37.372 25.0219 37.5745 24.3113 37.9976 23.7329C38.1836 23.5085 38.4184 23.3297 38.684 23.2099C38.9497 23.0901 39.2391 23.0325 39.5304 23.0416C39.8232 23.0387 40.113 23.1 40.3796 23.2211C40.6461 23.3423 40.8829 23.5204 41.0732 23.7429C41.4999 24.32 41.706 25.0307 41.6542 25.7465V43.6889C41.6542 45.6925 40.8227 46.6943 39.1597 46.6943C38.7881 46.697 38.4188 46.636 38.0678 46.514C37.7233 46.3854 37.407 46.1915 37.1361 45.943C36.8326 45.6738 36.5604 45.3714 36.3246 45.0414L35.5733 43.9694L26.8976 30.6654V44.0796C26.9559 44.7993 26.7413 45.5145 26.2965 46.0832C26.1012 46.3029 25.8599 46.4769 25.5899 46.5929C25.3198 46.7089 25.0275 46.7641 24.7337 46.7544C24.4375 46.7643 24.1427 46.7083 23.8707 46.5905C23.5988 46.4727 23.3563 46.296 23.1608 46.0732C22.7222 45.5017 22.5116 44.7877 22.5698 44.0696V26.4277C22.55 25.8332 22.6347 25.2398 22.8202 24.6746C23.0278 24.1967 23.3776 23.7944 23.822 23.5225C24.2504 23.2268 24.7545 23.0599 25.2747 23.0416C25.6187 23.0322 25.961 23.0941 26.2799 23.2234C26.5989 23.3528 26.8876 23.5467 27.128 23.793C27.3831 24.0641 27.6112 24.3594 27.8092 24.6746C28.0497 25.0452 28.2801 25.466 28.5406 25.8567Z" fill="url(#paint0_linear_5224_15454)"/>
<path d="M46.9348 43.8692V25.8867C46.8781 25.1316 47.1029 24.3822 47.5659 23.7829C47.7756 23.555 48.0315 23.3746 48.3166 23.2536C48.6017 23.1327 48.9093 23.0741 49.2189 23.0817C49.5338 23.0716 49.8473 23.1279 50.139 23.247C50.4307 23.3661 50.6941 23.5453 50.9119 23.7729C51.3862 24.3706 51.6155 25.1263 51.5531 25.8867V43.9193C51.6181 44.6831 51.3887 45.4428 50.9119 46.0431C50.6962 46.2741 50.4334 46.4562 50.1414 46.5771C49.8493 46.6981 49.5348 46.7551 49.2189 46.7444C48.9099 46.7519 48.6029 46.6922 48.3192 46.5694C48.0355 46.4466 47.7819 46.2636 47.5759 46.0331C47.0892 45.4225 46.8593 44.6464 46.9348 43.8692Z" fill="url(#paint1_linear_5224_15454)"/>
<path d="M71.5487 27.2893H66.5396V43.8692C66.5972 44.6353 66.3688 45.3956 65.8985 46.0031C65.6883 46.2297 65.432 46.4086 65.1469 46.5278C64.8618 46.6471 64.5544 46.7039 64.2455 46.6943C63.9328 46.7029 63.622 46.6447 63.3335 46.5238C63.045 46.4029 62.7856 46.222 62.5725 45.9931C62.0922 45.3943 61.8592 44.6344 61.9213 43.8692V27.2893H56.9123C56.2632 27.3565 55.6134 27.1698 55.099 26.7684C54.7379 26.3948 54.536 25.8955 54.536 25.3758C54.536 24.8562 54.7379 24.3569 55.099 23.9833C55.5976 23.6125 56.212 23.4314 56.8321 23.4724H71.5487C72.1935 23.4342 72.8293 23.6378 73.3319 24.0434C73.5161 24.2235 73.6624 24.4386 73.7623 24.676C73.8622 24.9134 73.9137 25.1684 73.9137 25.4259C73.9137 25.6835 73.8622 25.9385 73.7623 26.1759C73.6624 26.4133 73.5161 26.6284 73.3319 26.8084C72.815 27.1786 72.1816 27.3494 71.5487 27.2893Z" fill="url(#paint2_linear_5224_15454)"/>
<path d="M89.2603 43.7189L88.1583 40.8538H78.8815L77.7996 43.7791C77.5302 44.5885 77.1635 45.3622 76.7076 46.0832C76.5264 46.2945 76.2973 46.4593 76.0393 46.5639C75.7814 46.6685 75.5021 46.7098 75.2249 46.6843C74.6513 46.6964 74.0964 46.4802 73.6822 46.0832C73.4777 45.9013 73.3126 45.6795 73.1972 45.4314C73.0818 45.1833 73.0184 44.9142 73.0109 44.6406C73.0072 44.3 73.0614 43.9612 73.1712 43.6388C73.2714 43.3049 73.4417 42.844 73.6822 42.2563L79.5227 27.4295L80.1238 25.8968C80.3169 25.3724 80.569 24.8716 80.8751 24.4041C81.1306 24.0133 81.4736 23.6875 81.877 23.4523C82.3734 23.1686 82.9383 23.0266 83.5099 23.0416C84.0708 23.0204 84.6274 23.1483 85.1228 23.4123C85.525 23.6445 85.8679 23.9669 86.1246 24.354C86.395 24.7375 86.6202 25.151 86.7958 25.5862C86.9762 26.027 87.2066 26.6181 87.4871 27.3594L93.4979 42.086C93.8623 42.8731 94.0893 43.7168 94.1691 44.5805C94.1738 44.862 94.1192 45.1413 94.0087 45.4002C93.8982 45.6591 93.7344 45.8918 93.528 46.0832C93.3216 46.2963 93.0739 46.4648 92.7999 46.5785C92.526 46.6922 92.2317 46.7487 91.9351 46.7444C91.6127 46.7564 91.2924 46.6875 91.0034 46.544C90.747 46.4218 90.5236 46.2397 90.3523 46.0131C90.1198 45.705 89.9279 45.3683 89.7812 45.0113C89.5708 44.4803 89.4005 44.0796 89.2603 43.7189ZM80.1438 37.3875H86.9661L83.5199 27.9605L80.1438 37.3875Z" fill="url(#paint3_linear_5224_15454)"/>
<path d="M115.529 43.4685C116.243 43.9521 116.982 44.3969 117.743 44.8009C118.31 45.0696 118.841 45.406 119.326 45.8027C119.463 45.9463 119.568 46.1165 119.635 46.3028C119.702 46.489 119.73 46.6871 119.717 46.8847C119.677 47.2805 119.496 47.6487 119.207 47.9226C118.919 48.1965 118.542 48.3578 118.144 48.3774C117.696 48.356 117.258 48.2363 116.862 48.0267C116.242 47.7397 115.646 47.4048 115.079 47.0249C114.407 46.5941 113.666 46.0832 112.855 45.5022C111.122 46.3201 109.22 46.715 107.305 46.6543C105.675 46.6774 104.057 46.3884 102.536 45.8027C101.179 45.2768 99.9641 44.4395 98.9896 43.3583C98.0133 42.2577 97.2795 40.9641 96.8357 39.5614C96.3341 38.0223 96.0871 36.4116 96.1044 34.7928C96.0836 33.1485 96.3411 31.5126 96.8658 29.9541C97.3213 28.5711 98.0657 27.3007 99.0497 26.2274C100.022 25.1857 101.217 24.3774 102.546 23.8631C104.029 23.294 105.607 23.0151 107.194 23.0416C109.319 22.9834 111.422 23.4806 113.295 24.4842C115 25.4216 116.37 26.8681 117.213 28.6217C118.129 30.5684 118.578 32.702 118.525 34.8529C118.491 38.4795 117.493 41.3513 115.529 43.4685ZM111.903 40.9439C112.559 40.1842 113.044 39.2925 113.326 38.3292C113.652 37.1932 113.808 36.0148 113.786 34.8329C113.823 33.3428 113.546 31.8617 112.975 30.4851C112.503 29.3439 111.696 28.3728 110.661 27.7C109.624 27.0665 108.429 26.7399 107.214 26.7583C106.332 26.7479 105.458 26.9254 104.65 27.2793C103.875 27.6273 103.189 28.1482 102.646 28.802C102.036 29.5538 101.58 30.4185 101.304 31.3466C100.966 32.4774 100.8 33.6527 100.813 34.8329C100.686 36.9928 101.34 39.1262 102.656 40.8438C103.22 41.5239 103.93 42.0681 104.733 42.4358C105.536 42.8036 106.412 42.9853 107.295 42.9676C108.106 42.9588 108.908 42.7957 109.659 42.4867C109.087 42.0666 108.476 41.701 107.836 41.3948C107.312 41.156 106.81 40.8745 106.333 40.5532C106.201 40.457 106.095 40.3301 106.023 40.1834C105.952 40.0368 105.917 39.8748 105.922 39.7117C105.923 39.5545 105.959 39.3994 106.026 39.2575C106.094 39.1155 106.191 38.9901 106.313 38.8902C106.543 38.6634 106.851 38.5342 107.174 38.5296C108.103 38.563 109.679 39.3678 111.903 40.9439Z" fill="url(#paint4_linear_5224_15454)"/>
<path d="M172.902 20.7174H149.149C142.488 20.7174 137.087 26.1177 137.087 32.7792V54.7188C137.087 61.3803 142.488 66.7806 149.149 66.7806H172.902C179.564 66.7806 184.964 61.3803 184.964 54.7188V32.7792C184.964 26.1177 179.564 20.7174 172.902 20.7174Z" fill="#EF002A"/>
<path d="M160.941 50.2507C160.431 50.2486 159.926 50.1447 159.457 49.9452C158.987 49.7457 158.562 49.4545 158.206 49.0886L151.714 42.5969C151.432 42.3044 151.069 42.1012 150.672 42.0122C150.275 41.9231 149.861 41.9523 149.48 42.096C149.052 42.2644 148.686 42.5603 148.431 42.9438C148.177 43.3273 148.046 43.7798 148.058 44.2399V48.8582C148.058 49.0406 148.022 49.2212 147.952 49.3896C147.882 49.558 147.779 49.7108 147.649 49.8394C147.52 49.9679 147.366 50.0695 147.197 50.1384C147.029 50.2073 146.848 50.242 146.665 50.2407C146.483 50.2434 146.302 50.2099 146.132 50.1422C145.963 50.0746 145.809 49.9741 145.678 49.8465C145.548 49.7189 145.444 49.5668 145.373 49.3989C145.301 49.231 145.264 49.0506 145.263 48.8682V44.32C145.248 43.2365 145.579 42.1765 146.208 41.2938C146.837 40.4111 147.73 39.7517 148.759 39.4112C149.611 39.1446 150.521 39.1186 151.387 39.336C152.253 39.5534 153.043 40.0058 153.668 40.6434L160.16 47.1351C160.315 47.2927 160.514 47.4003 160.731 47.4441C160.948 47.4878 161.174 47.4658 161.378 47.3808C161.583 47.2958 161.757 47.1517 161.879 46.9669C162.001 46.7821 162.065 46.5651 162.063 46.3437V43.4585C162.063 41.8129 162.716 40.2346 163.879 39.07C165.041 37.9055 166.619 37.2499 168.264 37.2473H175.367C175.55 37.2473 175.73 37.2833 175.899 37.3534C176.067 37.4235 176.22 37.5263 176.348 37.6557C176.477 37.7852 176.578 37.9387 176.647 38.1076C176.716 38.2765 176.751 38.4574 176.75 38.6398C176.756 38.8238 176.726 39.0073 176.661 39.1796C176.596 39.3518 176.497 39.5093 176.37 39.6427C176.243 39.7762 176.091 39.8829 175.922 39.9567C175.753 40.0305 175.571 40.0698 175.387 40.0724H168.304C167.397 40.075 166.529 40.4372 165.888 41.0794C165.248 41.7216 164.888 42.5916 164.888 43.4985V46.2135C164.906 47.0642 164.652 47.8986 164.164 48.5956C163.676 49.2926 162.979 49.8162 162.173 50.0905C161.774 50.2115 161.358 50.2657 160.941 50.2507Z" fill="#F4F4F4"/>
<path d="M172.591 46.0832H169.796C169.614 46.0832 169.433 46.0471 169.265 45.977C169.096 45.9069 168.943 45.8042 168.815 45.6747C168.686 45.5453 168.585 45.3917 168.516 45.2228C168.447 45.0539 168.412 44.8731 168.414 44.6907C168.414 44.324 168.559 43.9724 168.818 43.7131C169.078 43.4539 169.429 43.3082 169.796 43.3082H172.591C172.773 43.3069 172.954 43.3417 173.123 43.4105C173.292 43.4794 173.446 43.5811 173.575 43.7096C173.705 43.8381 173.807 43.9909 173.877 44.1593C173.948 44.3277 173.984 44.5083 173.984 44.6907C173.984 45.06 173.837 45.4142 173.576 45.6754C173.315 45.9365 172.96 46.0832 172.591 46.0832Z" fill="#F4F4F4"/>
<defs>
<linearGradient id="paint0_linear_5224_15454" x1="22.5698" y1="34.893" x2="41.6843" y2="34.893" gradientUnits="userSpaceOnUse">
<stop stop-color="#EC1D32"/>
<stop offset="1" stop-color="#AA1F23"/>
</linearGradient>
<linearGradient id="paint1_linear_5224_15454" x1="46.9348" y1="34.893" x2="51.5531" y2="34.893" gradientUnits="userSpaceOnUse">
<stop stop-color="#EC1D32"/>
<stop offset="1" stop-color="#AA1F23"/>
</linearGradient>
<linearGradient id="paint2_linear_5224_15454" x1="54.5179" y1="35.0834" x2="73.913" y2="35.0834" gradientUnits="userSpaceOnUse">
<stop stop-color="#EC1D32"/>
<stop offset="1" stop-color="#AA1F23"/>
</linearGradient>
<linearGradient id="paint3_linear_5224_15454" x1="73.0109" y1="34.893" x2="94.1992" y2="34.893" gradientUnits="userSpaceOnUse">
<stop stop-color="#EC1D32"/>
<stop offset="1" stop-color="#AA1F23"/>
</linearGradient>
<linearGradient id="paint4_linear_5224_15454" x1="96.1044" y1="35.7446" x2="119.717" y2="35.7446" gradientUnits="userSpaceOnUse">
<stop stop-color="#EC1D32"/>
<stop offset="1" stop-color="#AA1F23"/>
</linearGradient>
</defs>
</svg>
