<svg width="22" height="20" viewBox="0 0 22 20" fill="none" xmlns="http://www.w3.org/2000/svg">
<path fill-rule="evenodd" clip-rule="evenodd" d="M2 1C2 0.447715 2.44772 0 3 0H6C6.49357 0 6.91332 0.360111 6.98837 0.847943L7.16561 2H21C21.3138 2 21.6094 2.14729 21.7984 2.3978C21.9874 2.64832 22.0478 2.973 21.9616 3.27472L19.9616 10.2747C19.8389 10.704 19.4465 11 19 11H8.55023L8.85792 13H20C20.5523 13 21 13.4477 21 14C21 14.5523 20.5523 15 20 15H8C7.50643 15 7.08668 14.6399 7.01163 14.1521C6.38843 10.1013 5.76519 6.0502 5.14208 2H3C2.44772 2 2 1.55228 2 1ZM0 6C0 5.44772 0.447715 5 1 5H3C3.55228 5 4 5.44772 4 6C4 6.55228 3.55228 7 3 7H1C0.447715 7 0 6.55228 0 6ZM0 9C0 8.44772 0.447715 8 1 8H4C4.55228 8 5 8.44772 5 9C5 9.55229 4.55228 10 4 10H1C0.447715 10 0 9.55229 0 9ZM0 12C0 11.4477 0.447715 11 1 11H5C5.55228 11 6 11.4477 6 12C6 12.5523 5.55228 13 5 13H1C0.447715 13 0 12.5523 0 12ZM6 18C6 16.8954 6.89543 16 8 16C9.10457 16 10 16.8954 10 18C10 19.1046 9.10457 20 8 20C6.89543 20 6 19.1046 6 18ZM17 18C17 16.8954 17.8954 16 19 16C20.1046 16 21 16.8954 21 18C21 19.1046 20.1046 20 19 20C17.8954 20 17 19.1046 17 18Z" fill="#9A46D7"/>
</svg>
