<svg width="20" height="16" viewBox="0 0 20 16" fill="none" xmlns="http://www.w3.org/2000/svg">
<path fill-rule="evenodd" clip-rule="evenodd" d="M16.7701 14.7422C16.3195 14.9425 15.8299 15.1219 15.308 15.2781C15.2932 15.2829 15.2782 15.2873 15.2632 15.2914C13.7286 15.7453 11.9183 16 10 16C8.08169 16 6.27145 15.7453 4.73684 15.2914C4.72175 15.2873 4.7068 15.2829 4.69201 15.2781C4.17012 15.1219 3.68054 14.9425 3.2299 14.7422C2.33918 14.3464 1.55645 13.8491 0.982869 13.2464C0.40438 12.6385 0 11.8777 0 11V5.5C0 3.67453 1.45384 2.29108 3.18883 1.42359C4.98362 0.526193 7.39314 0 10 0C12.6069 0 15.0164 0.526193 16.8112 1.42359C18.5462 2.29108 20 3.67453 20 5.5V11C20 11.8777 19.5956 12.6385 19.0171 13.2464C18.4435 13.8491 17.6608 14.3464 16.7701 14.7422ZM16.8112 9.57641C17.2292 9.36737 17.631 9.12838 18 8.86047V11C18 11.2269 17.9007 11.5184 17.5683 11.8676C17.2375 12.2152 16.7162 12.5727 16 12.8957V9.94006C16.2823 9.82683 16.5531 9.70545 16.8112 9.57641ZM14 10.5606V13.5584C13.098 13.7723 12.0853 13.9182 11 13.9743V10.974C12.0527 10.9189 13.0625 10.7774 14 10.5606ZM9 10.974V13.9743C7.91467 13.9182 6.902 13.7723 6 13.5584V10.5606C6.93754 10.7774 7.94734 10.9189 9 10.974ZM4 9.94006V12.8957C3.28378 12.5727 2.76247 12.2152 2.43166 11.8676C2.0993 11.5184 2 11.2269 2 11V8.86047C2.36901 9.12838 2.77076 9.36737 3.18883 9.57641C3.44692 9.70545 3.71772 9.82683 4 9.94006ZM10 3C8.80726 3 7.6829 3.17959 6.82045 3.50301C6.39292 3.66334 5.97747 3.87837 5.65093 4.16787C5.32556 4.45635 5 4.90421 5 5.5C5 6.09579 5.32556 6.54365 5.65093 6.83213C5.97747 7.12163 6.39292 7.33666 6.82045 7.49699C7.6829 7.82041 8.80726 8 10 8C11.1927 8 12.3171 7.82041 13.1796 7.49699C13.6071 7.33666 14.0225 7.12163 14.3491 6.83213C14.6744 6.54365 15 6.09579 15 5.5C15 4.90421 14.6744 4.45635 14.3491 4.16787C14.0225 3.87837 13.6071 3.66334 13.1796 3.50301C12.3171 3.17959 11.1927 3 10 3Z" fill="#FAF6FE"/>
</svg>
