<svg width="20" height="16" viewBox="0 0 20 16" fill="none" xmlns="http://www.w3.org/2000/svg">
<path d="M4.16146 7.59376e-07H15.8385C16.3657 -1.5696e-05 16.8205 -2.98917e-05 17.195 0.0305726C17.5904 0.0628736 17.9836 0.134189 18.362 0.326984C18.9265 0.614604 19.3854 1.07355 19.673 1.63803C19.8658 2.01641 19.9371 2.40963 19.9694 2.80498C19.9969 3.14075 19.9997 3.54097 20 4H2.97491e-05C0.000309785 3.54097 0.00313878 3.14075 0.0305728 2.80498C0.0628738 2.40963 0.13419 2.01641 0.326984 1.63803C0.614604 1.07355 1.07355 0.614604 1.63803 0.326984C2.01641 0.13419 2.40963 0.0628736 2.80498 0.0305726C3.17953 -2.98917e-05 3.63434 -1.5696e-05 4.16146 7.59376e-07Z" fill="#FAF6FE"/>
<path fill-rule="evenodd" clip-rule="evenodd" d="M7.43002e-07 6V11.8385C-1.54746e-05 12.3657 -2.94652e-05 12.8205 0.0305729 13.195C0.0628738 13.5904 0.13419 13.9836 0.326984 14.362C0.614604 14.9265 1.07355 15.3854 1.63803 15.673C2.01641 15.8658 2.40963 15.9371 2.80498 15.9694C3.17952 16 3.63424 16 4.16134 16H15.8385C16.3656 16 16.8205 16 17.195 15.9694C17.5904 15.9371 17.9836 15.8658 18.362 15.673C18.9265 15.3854 19.3854 14.9265 19.673 14.362C19.8658 13.9836 19.9371 13.5904 19.9694 13.195C20 12.8205 20 12.3657 20 11.8386V6H7.43002e-07ZM3 12C3 11.4477 3.44772 11 4 11H6C6.55229 11 7 11.4477 7 12C7 12.5523 6.55229 13 6 13H4C3.44772 13 3 12.5523 3 12Z" fill="#FAF6FE"/>
</svg>
