<svg width="20" height="18" viewBox="0 0 20 18" fill="none" xmlns="http://www.w3.org/2000/svg">
<path d="M6.3 0C2.43161 0 0 3.58614 0 6.76C0 8.43286 0.655783 9.9708 1.55651 11.297C2.45816 12.6246 3.64284 13.7964 4.80024 14.7598C5.96152 15.7265 7.12342 16.5064 8.00484 17.045C8.44623 17.3147 8.82164 17.5266 9.09684 17.6733C9.23365 17.7463 9.35056 17.8057 9.4414 17.8491C9.48549 17.8702 9.53236 17.8918 9.57659 17.9101C9.59747 17.9188 9.63023 17.932 9.66826 17.9447C9.68692 17.951 9.71857 17.9611 9.75781 17.9707C9.78277 17.9768 9.87794 18 10 18C10.1221 18 10.2165 17.977 10.2415 17.9709C10.2807 17.9613 10.3131 17.951 10.3317 17.9447C10.3698 17.932 10.4025 17.9188 10.4234 17.9101C10.4676 17.8918 10.5145 17.8702 10.5586 17.8491C10.6494 17.8057 10.7663 17.7463 10.9032 17.6733C11.1784 17.5266 11.5538 17.3147 11.9952 17.045C12.8766 16.5064 14.0385 15.7265 15.1998 14.7598C16.3572 13.7964 17.5418 12.6246 18.4435 11.297C19.3442 9.9708 20 8.43286 20 6.76C20 3.58614 17.5684 0 13.7 0C12.0692 0 10.8525 0.612449 10 1.3153C9.14746 0.612449 7.93081 0 6.3 0Z" fill="#9A46D7"/>
</svg>
