<svg width="21" height="20" viewBox="0 0 21 20" fill="none" xmlns="http://www.w3.org/2000/svg">
<path d="M11.1758 0.186817C10.7138 -0.0622724 10.1576 -0.0622724 9.69558 0.186817C9.2667 0.418062 9.07481 0.83956 8.99331 1.0226C8.89273 1.2485 8.79012 1.54377 8.68129 1.85697L7.12466 6.33521L2.38455 6.4318C2.05305 6.43852 1.74054 6.44486 1.49462 6.47071C1.29536 6.49166 0.835189 6.54392 0.482732 6.88034C0.103077 7.24273 -0.0688241 7.77179 0.0253171 8.28812C0.112714 8.76746 0.454282 9.08022 0.603177 9.21429C0.786936 9.37976 1.03605 9.56858 1.30028 9.76887L5.07833 12.6332L3.70543 17.1711C3.60938 17.4885 3.51883 17.7876 3.46742 18.0295C3.42577 18.2255 3.33327 18.6793 3.54431 19.1185C3.77164 19.5915 4.22168 19.9185 4.74184 19.9885C5.22473 20.0535 5.62773 19.8253 5.80125 19.7252C6.01538 19.6015 6.27192 19.423 6.54404 19.2336L10.4357 16.5255L14.3274 19.2336C14.5995 19.423 14.856 19.6015 15.0701 19.7252C15.2437 19.8253 15.6467 20.0535 16.1295 19.9885C16.6497 19.9185 17.0997 19.5915 17.3271 19.1185C17.5381 18.6793 17.4456 18.2255 17.404 18.0295C17.3526 17.7876 17.262 17.4884 17.166 17.1711L15.7931 12.6332L19.5711 9.76889C19.8353 9.56859 20.0844 9.37976 20.2682 9.21429C20.4171 9.08022 20.7587 8.76746 20.8461 8.28812C20.9402 7.77179 20.7683 7.24273 20.3887 6.88034C20.0362 6.54392 19.576 6.49166 19.3768 6.47071C19.1308 6.44486 18.8183 6.43852 18.4868 6.4318L13.7467 6.33521L12.1901 1.85697C12.0813 1.54377 11.9787 1.2485 11.8781 1.0226C11.7966 0.839559 11.6047 0.418062 11.1758 0.186817Z" fill="#9A46D7"/>
</svg>
