<svg width="18" height="17" viewBox="0 0 18 17" fill="none" xmlns="http://www.w3.org/2000/svg">
<path fill-rule="evenodd" clip-rule="evenodd" d="M4.16146 8.60109e-07H13.8385C14.3657 -1.70213e-05 14.8205 -3.25181e-05 15.195 0.0305712C15.5904 0.0628723 15.9836 0.134188 16.362 0.326982C16.9265 0.614603 17.3854 1.07354 17.673 1.63803C17.8658 2.01641 17.9371 2.40963 17.9694 2.80497C18 3.17954 18 3.6343 18 4.16144V12.8386C18 13.3657 18 13.8205 17.9694 14.195C17.9371 14.5904 17.8658 14.9836 17.673 15.362C17.3854 15.9265 16.9265 16.3854 16.362 16.673C15.9836 16.8658 15.5904 16.9371 15.195 16.9694C14.8205 17 14.3657 17 13.8386 17H4.16144C3.6343 17 3.17954 17 2.80497 16.9694C2.40963 16.9371 2.01641 16.8658 1.63803 16.673C1.07354 16.3854 0.614602 15.9265 0.326982 15.362C0.134188 14.9836 0.0628723 14.5904 0.0305712 14.195C-3.25181e-05 13.8205 -1.70213e-05 13.3657 8.60111e-07 12.8385V4.16146C-1.70213e-05 3.63431 -3.25181e-05 3.17955 0.0305712 2.80497C0.0628723 2.40963 0.134188 2.01641 0.326982 1.63803C0.614602 1.07354 1.07354 0.614602 1.63803 0.326982C2.01641 0.134188 2.40963 0.0628723 2.80497 0.0305712C3.17955 -3.25181e-05 3.63431 -1.70213e-05 4.16146 8.60109e-07ZM2.96784 2.02393C2.69617 2.04612 2.59546 2.0838 2.54601 2.109C2.35785 2.20487 2.20487 2.35785 2.109 2.54601C2.0838 2.59546 2.04612 2.69617 2.02393 2.96784C2.00078 3.25117 2 3.62345 2 4.2V5H5V2H4.2C3.62345 2 3.25117 2.00078 2.96784 2.02393ZM7 2V5H16V4.2C16 3.62345 15.9992 3.25118 15.9761 2.96784C15.9539 2.69617 15.9162 2.59546 15.891 2.54601C15.7951 2.35785 15.6422 2.20487 15.454 2.109C15.4045 2.0838 15.3038 2.04612 15.0322 2.02393C14.7488 2.00078 14.3766 2 13.8 2H7ZM16 7H7V10H16V7ZM16 12H7V15H13.8C14.3766 15 14.7488 14.9992 15.0322 14.9761C15.3038 14.9539 15.4045 14.9162 15.454 14.891C15.6422 14.7951 15.7951 14.6422 15.891 14.454C15.9162 14.4045 15.9539 14.3038 15.9761 14.0322C15.9992 13.7488 16 13.3766 16 12.8V12ZM5 15V12H2V12.8C2 13.3766 2.00078 13.7488 2.02393 14.0322C2.04612 14.3038 2.0838 14.4045 2.109 14.454C2.20487 14.6422 2.35785 14.7951 2.54601 14.891C2.59546 14.9162 2.69617 14.9539 2.96784 14.9761C3.25117 14.9992 3.62345 15 4.2 15H5ZM2 10H5V7H2V10Z" fill="#FAF6FE"/>
</svg>
