<svg width="20" height="18" viewBox="0 0 20 18" fill="none" xmlns="http://www.w3.org/2000/svg">
<path fill-rule="evenodd" clip-rule="evenodd" d="M4.16146 7.44129e-07H12.8385C13.3657 -1.54898e-05 13.8205 -2.9495e-05 14.195 0.0305728C14.5904 0.0628738 14.9836 0.13419 15.362 0.326984C15.9265 0.614604 16.3854 1.07355 16.673 1.63803C16.8658 2.01641 16.9371 2.40963 16.9694 2.80498C16.9972 3.14504 16.9998 3.5512 17 4.01762C17.0672 4.02118 17.1323 4.02544 17.195 4.03057C17.5904 4.06287 17.9836 4.13419 18.362 4.32698C18.9265 4.6146 19.3854 5.07355 19.673 5.63803C19.8658 6.01641 19.9371 6.40963 19.9694 6.80498C20 7.17954 20 7.6343 20 8.16144V13.8386C20 14.3657 20 14.8205 19.9694 15.195C19.9371 15.5904 19.8658 15.9836 19.673 16.362C19.3854 16.9265 18.9265 17.3854 18.362 17.673C17.9836 17.8658 17.5904 17.9371 17.195 17.9694C16.8205 18 16.3657 18 15.8386 18H4.16144C3.6343 18 3.17954 18 2.80498 17.9694C2.40963 17.9371 2.01641 17.8658 1.63803 17.673C1.07355 17.3854 0.614604 16.9265 0.326984 16.362C0.13419 15.9836 0.0628738 15.5904 0.0305728 15.195C-2.94652e-05 14.8205 -1.54746e-05 14.3657 7.43004e-07 13.8386V4.16142C-1.54746e-05 3.63431 -2.94652e-05 3.17953 0.0305728 2.80498C0.0628738 2.40963 0.13419 2.01641 0.326984 1.63803C0.614604 1.07355 1.07355 0.614604 1.63803 0.326984C2.01641 0.13419 2.40963 0.0628738 2.80498 0.0305728C3.17953 -2.94931e-05 3.63434 -1.54898e-05 4.16146 7.44129e-07ZM14.9999 4C14.9995 3.5349 14.9964 3.21699 14.9761 2.96784C14.9539 2.69618 14.9162 2.59546 14.891 2.54601C14.7951 2.35785 14.6422 2.20487 14.454 2.109C14.4046 2.0838 14.3038 2.04613 14.0322 2.02393C13.7488 2.00078 13.3766 2 12.8 2H4.2C3.62345 2 3.25118 2.00078 2.96784 2.02393C2.69618 2.04613 2.59546 2.0838 2.54601 2.109C2.35785 2.20487 2.20487 2.35785 2.109 2.54601C2.0838 2.59546 2.04613 2.69618 2.02393 2.96784C2.00357 3.21699 2.00052 3.5349 2.00008 4H14.9999ZM14 11C14 10.1716 14.6716 9.5 15.5 9.5H18V12.5H15.5C14.6716 12.5 14 11.8284 14 11ZM8 9C8 8.44772 7.55229 8 7 8C6.44772 8 6 8.44772 6 9V10.0001L5.00014 10C4.44785 9.99993 4.00008 10.4476 4 10.9999C3.99993 11.5521 4.44758 11.9999 4.99986 12L6 12.0001V13C6 13.5523 6.44772 14 7 14C7.55229 14 8 13.5523 8 13V12.0004L8.99986 12.0005C9.55215 12.0006 9.99992 11.553 10 11.0007C10.0001 10.4484 9.55242 10.0006 9.00014 10.0005L8 10.0004V9Z" fill="#FAF6FE"/>
</svg>
